<svg xmlns="http://www.w3.org/2000/svg" width="432.389" height="110.301" viewBox="0 0 432.389 110.301">
  <g id="Group_19313" data-name="Group 19313" transform="translate(1911.528 3708.551)">
    <text id="AL-TAWASOL" transform="translate(-1702.528 -3612.25)" fill="#fff" font-size="67" font-family="BerlinSansFBDemi-Bold, Berlin Sans FB" font-weight="700"><tspan x="-208.77" y="0">AL</tspan><tspan y="0" fill="#15c2ea">-</tspan><tspan y="0">TAWASOL</tspan></text>
    <path id="Path_61278" data-name="Path 61278" d="M2862.775,1123.215l39.045,16.655q-.239-6.72-.478-13.437a84.069,84.069,0,0,1,27.249,2.592c29.287,7.85,45.513,30.058,46.989,28.626,1.2-1.168-8.9-17.834-27.17-30.77-17.956-12.712-36.476-16.637-48.077-18.015q.193-6.383.385-12.767Q2881.747,1109.655,2862.775,1123.215Z" transform="translate(-4454.817 -4804.65)" fill="#15c2ea"/>
    <path id="Path_61279" data-name="Path 61279" d="M2923.864,1127.588l-7.906,4.393,2.635,1.758a23.125,23.125,0,0,1-7.029,7.029c-7.643,4.789-16.033,3.216-16.048,3.89-.016.611,6.914,2.732,14.29.5a24.889,24.889,0,0,0,12.3-8.787l1.757,1.758Z" transform="translate(-4453.021 -4757.349)" fill="#15c2ea"/>
  </g>
</svg>
