<svg id="Group_19313" data-name="Group 19313" xmlns="http://www.w3.org/2000/svg" width="540.041" height="136.84" viewBox="0 0 540.041 136.84">
  <text id="AL-TAWASOL" transform="translate(259 119.84)" font-size="83" font-family="BerlinSansFBDemi-Bold, Berlin Sans FB Demi" font-weight="700"><tspan x="-258.625" y="0">AL</tspan><tspan y="0" fill="#15c2ea">-</tspan><tspan y="0">TAWASOL</tspan></text>
  <path id="Path_61278" data-name="Path 61278" d="M2862.775,1129.966l48.767,20.8q-.3-8.393-.6-16.783a105,105,0,0,1,34.034,3.237c36.578,9.8,56.844,37.541,58.688,35.753,1.5-1.459-11.115-22.274-33.935-38.43-22.427-15.877-45.557-20.78-60.046-22.5q.241-7.972.481-15.945Q2886.47,1113.03,2862.775,1129.966Z" transform="translate(-2463.746 -1096.099)" fill="#15c2ea"/>
  <path id="Path_61279" data-name="Path 61279" d="M2930.922,1127.588l-9.875,5.487,3.292,2.2a28.883,28.883,0,0,1-8.779,8.779c-9.545,5.981-20.025,4.017-20.043,4.858-.019.764,8.635,3.412,17.848.629a31.085,31.085,0,0,0,15.363-10.974l2.194,2.2Z" transform="translate(-2461.386 -1030.182)" fill="#15c2ea"/>
</svg>
