<svg id="Iconly_Bulk_Send" data-name="Iconly/Bulk/Send" xmlns="http://www.w3.org/2000/svg" width="32" height="32" viewBox="0 0 32 32">
  <g id="Send" transform="translate(2.648 2.648)">
    <path id="Fill_1" data-name="Fill 1" d="M25.723.766A2.567,2.567,0,0,0,23.167.1L1.863,6.259a2.534,2.534,0,0,0-1.831,2,2.959,2.959,0,0,0,1.327,2.767L8.02,15.095a1.732,1.732,0,0,0,2.13-.253l7.628-7.628a.973.973,0,0,1,1.4,0,1,1,0,0,1,0,1.4l-7.641,7.628a1.735,1.735,0,0,0-.256,2.13l4.07,6.686a2.65,2.65,0,0,0,2.529,1.23,2.574,2.574,0,0,0,2.158-1.827L26.358,3.321A2.572,2.572,0,0,0,25.723.766" transform="translate(0 0)" fill="#fff"/>
    <path id="Combined_Shape" data-name="Combined Shape" d="M6.308,10.1a.993.993,0,0,1,0-1.4L8.116,6.884a.993.993,0,0,1,1.4,1.4L7.712,10.1a.993.993,0,0,1-1.4,0ZM5.27,5.081a.993.993,0,0,1,0-1.4L7.078,1.868a.993.993,0,1,1,1.4,1.4L6.674,5.081a.993.993,0,0,1-1.4,0ZM.29,3.5a.993.993,0,0,1,0-1.4L2.1.29a.993.993,0,0,1,1.4,1.4L1.694,3.5a.993.993,0,0,1-1.4,0Z" transform="translate(0.346 15.813)" fill="#fff" opacity="0.4"/>
  </g>
</svg>
