<svg xmlns="http://www.w3.org/2000/svg" xmlns:xlink="http://www.w3.org/1999/xlink" width="184.618" height="187.229" viewBox="0 0 184.618 187.229">
  <defs>
    <linearGradient id="linear-gradient" y1="0.5" x2="1" y2="0.5" gradientUnits="objectBoundingBox">
      <stop offset="0" stop-color="#ebf2fb"/>
      <stop offset="0.826" stop-color="#d7e2f1"/>
      <stop offset="1" stop-color="#dae4f1"/>
    </linearGradient>
    <linearGradient id="linear-gradient-2" x1="-0.023" y1="0.5" x2="1.014" y2="0.5" gradientUnits="objectBoundingBox">
      <stop offset="0" stop-color="#dae9fe"/>
      <stop offset="0.796" stop-color="#a2b7db"/>
      <stop offset="1" stop-color="#bbcae1"/>
    </linearGradient>
    <linearGradient id="linear-gradient-3" x1="0.5" y1="0.268" x2="0.5" y2="1.265" gradientUnits="objectBoundingBox">
      <stop offset="0" stop-color="#aab9cc"/>
      <stop offset="1" stop-color="#fff"/>
    </linearGradient>
    <linearGradient id="linear-gradient-4" x1="0.5" y1="0.482" x2="0.5" y2="1.03" gradientUnits="objectBoundingBox">
      <stop offset="0" stop-color="#fff"/>
      <stop offset="1"/>
    </linearGradient>
    <linearGradient id="linear-gradient-5" x1="0.5" x2="0.5" y2="1" gradientUnits="objectBoundingBox">
      <stop offset="0" stop-color="#fae673"/>
      <stop offset="1" stop-color="#03dac5"/>
    </linearGradient>
    <clipPath id="clip-path">
      <path id="Path_65396" data-name="Path 65396" d="M-923.128,1566.068l-.025,8.849a.27.27,0,0,1-.026.114.58.58,0,0,1-.363.279c-3.593,1.223-11.952,4.038-15.5,4.968-10.844,2.848-20.693,1.988-30.014-2.613l.025-8.848c9.322,4.6,19.172,5.46,30.015,2.613,3.552-.93,11.911-3.747,15.5-4.97a.578.578,0,0,0,.363-.279A.274.274,0,0,0-923.128,1566.068Z" transform="translate(969.06 -1566.068)" fill="#00beac"/>
    </clipPath>
  </defs>
  <g id="Group_21173" data-name="Group 21173" transform="translate(0)">
    <g id="Group_20946" data-name="Group 20946" transform="translate(45.561)">
      <path id="Path_65304" data-name="Path 65304" d="M-975.894,1472.391c-17.439,0-31.581,7.754-31.581,17.315v68.5c0,8.732,14.142,15,31.581,15s31.586-6.264,31.586-15v-68.5C-944.308,1480.145-958.45,1472.391-975.894,1472.391Z" transform="translate(1007.477 -1453.582)" fill="url(#linear-gradient)"/>
      <path id="Path_65305" data-name="Path 65305" d="M-976.522,1472.391c-16.346,0-29.6,10.429-29.6,19.391v64.2c0,8.184,13.25,14.051,29.6,14.051s29.6-5.868,29.6-14.051v-64.2C-946.92,1482.82-960.171,1472.391-976.522,1472.391Z" transform="translate(1008.105 -1453.582)" fill="url(#linear-gradient-2)"/>
      <path id="Path_65306" data-name="Path 65306" d="M-947.1,1534.794c0,6.464-13.188,12.71-29.462,12.71s-29.46-5.688-29.46-12.71c0-7.583,13.191-13.727,29.46-13.727S-947.1,1527.21-947.1,1534.794Z" transform="translate(1008.148 -1431.051)" opacity="0.7" fill="url(#linear-gradient-3)" style="mix-blend-mode: multiply;isolation: isolate"/>
      <path id="Path_65307" data-name="Path 65307" d="M-975.849,1502.97c-17.464,0-31.626-5.235-31.626-11.693v42.075c0,6.458,14.162,13.273,31.626,13.273s31.628-6.814,31.628-13.273v-42.075C-944.22,1497.736-958.38,1502.97-975.849,1502.97Z" transform="translate(1007.477 -1444.84)" fill="#39495c"/>
      <g id="Group_20934" data-name="Group 20934" transform="translate(0 52.006)">
        <g id="Group_20933" data-name="Group 20933">
          <path id="Path_65308" data-name="Path 65308" d="M-977.162,1527.884c-12.151-.056-23.115-3.716-30.314-10.353v-22.447c3.675,6.13,18.144,9.723,30.314,9.755Z" transform="translate(1007.476 -1495.084)" fill="#accbe0"/>
          <path id="Path_65309" data-name="Path 65309" d="M-977.162,1531.922c-12.163-.03-25.4-3.233-30.314-9.85v-9.354c6.6,6.62,18.161,10.154,30.314,10.191Z" transform="translate(1007.476 -1486.921)" fill="#92acbd"/>
          <path id="Path_65310" data-name="Path 65310" d="M-970.084,1501.51a68.986,68.986,0,0,1-14.341,1.52v-.832a69.778,69.778,0,0,0,14.341-1.505Z" transform="translate(1018.146 -1492.488)" fill="#6783a6"/>
          <path id="Path_65311" data-name="Path 65311" d="M-957.349,1499.66c-6.709,6.26-15.456,6.969-27.075,7.312v-.863c11.62-.324,20.366-.967,27.075-7.235Z" transform="translate(1018.146 -1493.33)" fill="#fff"/>
          <path id="Path_65312" data-name="Path 65312" d="M-957.349,1501.714c-6.709,6.262-15.456,7.25-27.075,7.691v-.881c11.62-.411,20.366-1.324,27.075-7.583Z" transform="translate(1018.146 -1492.372)" fill="#fff"/>
          <path id="Path_65313" data-name="Path 65313" d="M-957.349,1503.754c-6.709,6.289-15.456,7.565-27.075,8.128V1511c11.62-.533,20.366-1.734,27.075-8.017Z" transform="translate(1018.146 -1491.428)" fill="#fff"/>
          <path id="Path_65314" data-name="Path 65314" d="M-957.349,1505.815c-6.709,6.292-15.456,7.844-27.075,8.507v-.871c11.62-.64,20.366-2.125,27.075-8.42Z" transform="translate(1018.146 -1490.479)" fill="#fff"/>
          <path id="Path_65315" data-name="Path 65315" d="M-957.349,1507.942c-6.709,6.224-15.456,8.02-27.075,8.711v-.842c11.62-.692,20.366-2.43,27.075-8.681Z" transform="translate(1018.146 -1489.508)" fill="#fff"/>
          <path id="Path_65316" data-name="Path 65316" d="M-957.358,1511.988c-5.506,5.931-15.208,8.014-27.042,8.753l-.006-.821c11.8-.73,21.357-2.774,27.048-8.743Z" transform="translate(1018.155 -1487.635)" fill="#fff"/>
          <path id="Path_65317" data-name="Path 65317" d="M-961.058,1514.411c-2.965,3.631-7.263,5.162-15.3,7.033l-.056-.8c8-1.858,12.274-3.381,15.355-7.037Z" transform="translate(1021.856 -1486.512)" fill="#fff"/>
          <path id="Path_65318" data-name="Path 65318" d="M-961.117,1516.253c-2.579,3.549-6.963,5.107-15.116,7.013l-.054-.8c8.116-1.9,12.476-3.445,15.17-7.019Z" transform="translate(1021.914 -1485.659)" fill="#fff"/>
          <path id="Path_65319" data-name="Path 65319" d="M-961.175,1518.1c-2.191,3.464-6.664,5.049-14.932,6.99l-.056-.808c8.233-1.931,12.679-3.507,14.987-7Z" transform="translate(1021.972 -1484.805)" fill="#fff"/>
          <path id="Path_65320" data-name="Path 65320" d="M-961.232,1519.965c-1.805,3.375-6.364,4.982-14.749,6.954l-.055-.81c8.35-1.964,12.882-3.564,14.8-6.967Z" transform="translate(1022.029 -1483.947)" fill="#fff"/>
          <path id="Path_65321" data-name="Path 65321" d="M-974.426,1524.5a64,64,0,0,1-9.927,1.389l-.037-5.869a61.03,61.03,0,0,0,9.636-1.3C-974.622,1521.027-974.558,1522.181-974.426,1524.5Z" transform="translate(1018.163 -1484.146)" fill="#617b9c"/>
          <path id="Path_65322" data-name="Path 65322" d="M-975.891,1515.374a58.322,58.322,0,0,1-8.521,1.063l0-.821a58.077,58.077,0,0,0,8.485-1.053Z" transform="translate(1018.15 -1486.068)" fill="#6783a6"/>
          <path id="Path_65323" data-name="Path 65323" d="M-974.267,1525.038a65.326,65.326,0,0,1-10.084,1.426l0-.821a64.9,64.9,0,0,0,10.043-1.417Z" transform="translate(1018.179 -1481.594)" fill="#6783a6"/>
          <path id="Path_65324" data-name="Path 65324" d="M-968.685,1513.328a46.182,46.182,0,0,1-8.144,2.464l-.054-.809a46.012,46.012,0,0,0,8.122-2.456C-968.732,1512.847-968.716,1513.008-968.685,1513.328Z" transform="translate(1021.638 -1487.01)" fill="#6783a6"/>
          <path id="Path_65325" data-name="Path 65325" d="M-964.088,1510.134a17.233,17.233,0,0,1-5.707,3.756l-.073-.8a17.905,17.905,0,0,0,5.78-3.77Z" transform="translate(1024.885 -1488.495)" fill="#6783a6"/>
        </g>
      </g>
      <path id="Path_65326" data-name="Path 65326" d="M-995.252,1478.777s-9.553,2.458-9.553,10.393v69.509s.957,5.68,3.48,6.647l3.776,1.372a20.555,20.555,0,0,1-1.966-9.494v-65s-.12-8.1,6.278-9.983Z" transform="translate(1008.713 -1450.626)" opacity="0.6" fill="url(#linear-gradient-4)" style="mix-blend-mode: screen;isolation: isolate"/>
      <path id="Path_65327" data-name="Path 65327" d="M-1001.582,1465.636v17.452c0,4.93,10.281,8.927,22.96,8.927s22.965-4,22.965-8.927v-17.452Z" transform="translate(1010.204 -1456.71)" fill="#18202c"/>
      <path id="Path_65328" data-name="Path 65328" d="M-955.657,1468.461c0,4.932-10.277,8.925-22.965,8.925s-22.96-3.994-22.96-8.925,10.281-8.927,22.96-8.927S-955.657,1463.531-955.657,1468.461Z" transform="translate(1010.204 -1459.534)" fill="#39495c"/>
      <path id="Path_65329" data-name="Path 65329" d="M-959.191,1468.131c0,4.351-9.081,7.884-20.281,7.884s-20.276-3.533-20.276-7.884,9.076-7.884,20.276-7.884S-959.191,1463.777-959.191,1468.131Z" transform="translate(1011.054 -1459.204)" fill="#2e3b4a"/>
      <path id="Path_65330" data-name="Path 65330" d="M-997.594,1469.175c0-4.352,9.082-7.884,20.279-7.884a40.2,40.2,0,0,1,14.73,2.477c-3.638-2.121-9.837-3.521-16.886-3.521-11.2,0-20.276,3.53-20.276,7.884,0,2.1,2.118,4,5.549,5.406C-996.34,1472.287-997.594,1470.791-997.594,1469.175Z" transform="translate(1011.054 -1459.204)" fill="#18202c"/>
      <g id="Group_20935" data-name="Group 20935" transform="translate(10.021 13.933)">
        <path id="Path_65331" data-name="Path 65331" d="M-1000.626,1483.279v-13.747a.472.472,0,0,1,.48-.474h0a.472.472,0,0,1,.474.474h0v13.747a.478.478,0,0,1-.474.474h0a.478.478,0,0,1-.48-.474Z" transform="translate(1000.626 -1469.058)" fill="#39495c"/>
      </g>
      <g id="Group_20936" data-name="Group 20936" transform="translate(12.979 15.946)">
        <path id="Path_65332" data-name="Path 65332" d="M-998.6,1484.657v-13.749a.478.478,0,0,1,.481-.474h0a.476.476,0,0,1,.473.474h0v13.749a.476.476,0,0,1-.473.474h0a.477.477,0,0,1-.481-.474Z" transform="translate(998.604 -1470.434)" fill="#39495c"/>
      </g>
      <g id="Group_20937" data-name="Group 20937" transform="translate(16.775 17.375)">
        <path id="Path_65333" data-name="Path 65333" d="M-996.009,1485.628v-13.742a.478.478,0,0,1,.481-.474h0a.476.476,0,0,1,.472.474h0v13.742a.473.473,0,0,1-.472.475h0a.476.476,0,0,1-.481-.475Z" transform="translate(996.009 -1471.411)" fill="#39495c"/>
      </g>
      <g id="Group_20938" data-name="Group 20938" transform="translate(20.681 18.332)">
        <path id="Path_65334" data-name="Path 65334" d="M-993.339,1486.285v-13.746a.478.478,0,0,1,.48-.474h0a.478.478,0,0,1,.474.474h0v13.746a.478.478,0,0,1-.474.474h0a.478.478,0,0,1-.48-.474Z" transform="translate(993.339 -1472.065)" fill="#39495c"/>
      </g>
      <g id="Group_20939" data-name="Group 20939" transform="translate(25.66 19.261)">
        <path id="Path_65335" data-name="Path 65335" d="M-989.936,1486.923v-13.748a.478.478,0,0,1,.48-.474h0a.477.477,0,0,1,.473.474h0v13.748a.477.477,0,0,1-.473.474h0a.478.478,0,0,1-.48-.474Z" transform="translate(989.936 -1472.7)" fill="#39495c"/>
      </g>
      <g id="Group_20940" data-name="Group 20940" transform="translate(49.227 15.946)">
        <path id="Path_65336" data-name="Path 65336" d="M-973.826,1484.652v-13.746a.476.476,0,0,1,.48-.472h0a.475.475,0,0,1,.473.472h0v13.746a.47.47,0,0,1-.473.472h0a.472.472,0,0,1-.48-.472Z" transform="translate(973.826 -1470.434)" fill="#39495c"/>
      </g>
      <g id="Group_20941" data-name="Group 20941" transform="translate(45.437 17.375)">
        <path id="Path_65337" data-name="Path 65337" d="M-976.417,1485.628v-13.741a.479.479,0,0,1,.481-.475h0a.477.477,0,0,1,.472.475h0v13.741a.473.473,0,0,1-.472.475h0a.475.475,0,0,1-.481-.475Z" transform="translate(976.417 -1471.411)" fill="#39495c"/>
      </g>
      <g id="Group_20942" data-name="Group 20942" transform="translate(41.532 18.335)">
        <path id="Path_65338" data-name="Path 65338" d="M-979.086,1486.282v-13.741a.467.467,0,0,1,.473-.474h0a.472.472,0,0,1,.474.474h0v13.741a.472.472,0,0,1-.474.474h0a.467.467,0,0,1-.473-.474Z" transform="translate(979.086 -1472.067)" fill="#39495c"/>
      </g>
      <g id="Group_20943" data-name="Group 20943" transform="translate(36.546 19.265)">
        <path id="Path_65339" data-name="Path 65339" d="M-982.494,1486.921v-13.745a.473.473,0,0,1,.481-.472h0a.47.47,0,0,1,.472.472h0v13.745a.471.471,0,0,1-.472.467h0a.474.474,0,0,1-.481-.467Z" transform="translate(982.494 -1472.703)" fill="#39495c"/>
      </g>
      <g id="Group_20944" data-name="Group 20944" transform="translate(52.438 13.93)">
        <path id="Path_65340" data-name="Path 65340" d="M-971.631,1483.276V1469.53a.474.474,0,0,1,.477-.474h0a.476.476,0,0,1,.472.474h0v13.746a.476.476,0,0,1-.472.475h0a.475.475,0,0,1-.477-.475Z" transform="translate(971.631 -1469.056)" fill="#39495c"/>
      </g>
      <g id="Group_20945" data-name="Group 20945" transform="translate(31.103 19.264)">
        <path id="Path_65341" data-name="Path 65341" d="M-986.215,1486.919v-13.744a.477.477,0,0,1,.48-.472h0a.476.476,0,0,1,.474.472h0v13.744a.477.477,0,0,1-.474.473h0a.477.477,0,0,1-.48-.473Z" transform="translate(986.215 -1472.702)" fill="#39495c"/>
      </g>
      <path id="Path_65342" data-name="Path 65342" d="M-951.695,1484.163c.708.97-1.1,5.333-13.133,8.314-17.492,4.335-34.027-1.425-33.2-3.318.43-.988,5.343,4.757,29.88.952C-953.434,1487.827-952.038,1483.7-951.695,1484.163Z" transform="translate(1011.838 -1448.149)" fill="#fff" opacity="0.6" style="mix-blend-mode: screen;isolation: isolate"/>
    </g>
    <g id="Group_20997" data-name="Group 20997" transform="translate(0 102.232)">
      <g id="Group_20948" data-name="Group 20948" transform="translate(0 3.575)">
        <g id="Group_20947" data-name="Group 20947" transform="translate(0 15.326)" opacity="0.41" style="mix-blend-mode: multiply;isolation: isolate">
          <path id="Path_65343" data-name="Path 65343" d="M-1035.636,1544.053c-3.96,2.287-3.982,5.994-.045,8.281a15.759,15.759,0,0,0,14.3,0c3.961-2.288,3.982-5.995.047-8.281a15.754,15.754,0,0,0-14.3,0Z" transform="translate(1038.62 -1542.337)" fill="gray"/>
        </g>
        <path id="Path_65344" data-name="Path 65344" d="M-986.232,1585.336h-11.984l-9.8-3.678-8.9-5.029-.712-4.712,5.542-4.617a33.092,33.092,0,0,0-9.956,3.6c-10.295,5.944-10.349,15.58-.119,21.525s26.865,5.944,37.159,0c5.253-3.033,7.823-7.025,7.74-11Z" transform="translate(1042.703 -1515.457)" fill="gray" opacity="0.41" style="mix-blend-mode: multiply;isolation: isolate"/>
        <path id="Path_65345" data-name="Path 65345" d="M-967.581,1568.7l-7.462-4.216-.712-4.712,5.542-4.617a33.058,33.058,0,0,0-9.955,3.6c-10.181,5.877-10.33,15.359-.442,21.318Z" transform="translate(1062.09 -1521.076)" fill="gray" opacity="0.41" style="mix-blend-mode: multiply;isolation: isolate"/>
        <path id="Path_65346" data-name="Path 65346" d="M-936.472,1569.229l-.1,1.08h-2.374l-3.978,1.735h-11.984l-9.8-3.677-4-2.258-15.315,8.716a18.409,18.409,0,0,0,5.164,4.3c10.229,5.944,26.865,5.944,37.159,0,5.253-3.032,7.824-7.026,7.74-11Z" transform="translate(1063.896 -1516.008)" fill="gray" opacity="0.41" style="mix-blend-mode: multiply;isolation: isolate"/>
        <path id="Path_65347" data-name="Path 65347" d="M-924.994,1548.124s12.142,9.948,7.967,12.985l6.963-4.709-.417-5.578-10.375-4.846Z" transform="translate(1091.218 -1525.328)" fill="gray" opacity="0.41" style="mix-blend-mode: multiply;isolation: isolate"/>
        <path id="Path_65348" data-name="Path 65348" d="M-1022.219,1546.952s25.964.517,27.572,11.629,7.5-5.133,7.5-5.133l-22.775-13.156-13.933,5.016Z" transform="translate(1045.456 -1527.959)" fill="gray" opacity="0.41" style="mix-blend-mode: multiply;isolation: isolate"/>
        <path id="Path_65349" data-name="Path 65349" d="M-921.191,1545.352s-17.866-5.9-34.94,1.205c-26.141,10.877-.631-6.643-.631-6.643l15.356-8.053,19.026,7.622Z" transform="translate(1071.35 -1531.861)" fill="gray" opacity="0.41" style="mix-blend-mode: multiply;isolation: isolate"/>
      </g>
      <g id="Group_20996" data-name="Group 20996" transform="translate(4.192)">
        <g id="Group_20995" data-name="Group 20995" style="isolation: isolate">
          <g id="Group_20950" data-name="Group 20950" transform="translate(144.433 3.597)" style="isolation: isolate">
            <g id="Group_20949" data-name="Group 20949" style="isolation: isolate">
              <path id="Path_65350" data-name="Path 65350" d="M-936.121,1531.876l-.025,8.849a3.036,3.036,0,0,0-.642.139l.025-8.849a2.985,2.985,0,0,1,.642-.139Z" transform="translate(937.133 -1531.876)" fill="#bfbfbf"/>
              <path id="Path_65351" data-name="Path 65351" d="M-936.654,1531.971l-.025,8.849a1.891,1.891,0,0,0-.345.155l.025-8.849a2.067,2.067,0,0,1,.345-.155Z" transform="translate(937.024 -1531.832)" fill="#9f9f9f"/>
            </g>
          </g>
          <g id="Group_20951" data-name="Group 20951" transform="translate(143.275 3.891)">
            <path id="Path_65352" data-name="Path 65352" d="M-936.632,1532.077l-.025,8.849-1.159.673.025-8.849Z" transform="translate(937.816 -1532.077)" fill="#aaa"/>
          </g>
          <g id="Group_20953" data-name="Group 20953" transform="translate(142.749 4.564)" style="isolation: isolate">
            <g id="Group_20952" data-name="Group 20952" style="isolation: isolate">
              <path id="Path_65353" data-name="Path 65353" d="M-937.624,1532.537l-.026,8.849a1.017,1.017,0,0,0-.525.654l.025-8.847a1.015,1.015,0,0,1,.527-.656Z" transform="translate(938.175 -1532.537)" fill="#9f9f9f"/>
            </g>
          </g>
          <path id="Path_65354" data-name="Path 65354" d="M-935.809,1533.768l-.025,8.848a20.292,20.292,0,0,0-2.046-.982,30.479,30.479,0,0,0-5.352-1.492l.025-8.849a30.541,30.541,0,0,1,5.353,1.492,20.1,20.1,0,0,1,2.045.983Z" transform="translate(1078.584 -1528.549)" fill="#9f9f9f"/>
          <g id="Group_20954" data-name="Group 20954" transform="translate(142.76 3.576)">
            <path id="Path_65355" data-name="Path 65355" d="M-930.349,1533.578c.55.318.557.8-.016,1.135l-2.862,1.664a2.089,2.089,0,0,1-1.959.013,1.372,1.372,0,0,1-.17-.115l-2.462-1.978a.8.8,0,0,1-.336-.792,1.015,1.015,0,0,1,.527-.655l1.157-.673a2.565,2.565,0,0,1,.988-.294,3.174,3.174,0,0,1,1.51.18l3.425,1.419A1.6,1.6,0,0,1-930.349,1533.578Z" transform="translate(938.168 -1531.862)" fill="#024a6c"/>
          </g>
          <path id="Path_65356" data-name="Path 65356" d="M-930.357,1534.15l-2.862,1.663a1.757,1.757,0,0,1-.276.125c-.035.013-.07.023-.107.035s-.092.026-.14.037-.079.016-.12.022-.1.015-.145.02-.082.006-.123.007-.1,0-.145,0-.082,0-.123-.006-.1-.01-.144-.018-.074-.012-.111-.019a1.936,1.936,0,0,1-.19-.05c-.029-.01-.058-.018-.085-.028a1.612,1.612,0,0,1-.25-.112,1.389,1.389,0,0,1-.17-.115l-2.462-1.979a.839.839,0,0,1-.351-.654l-.025,8.849a.835.835,0,0,0,.351.654l2.462,1.978a1.378,1.378,0,0,0,.17.115,1.6,1.6,0,0,0,.249.114c.028.01.057.017.086.028.062.019.125.036.19.049.015,0,.029.009.044.012s.046,0,.068.007c.048.007.095.013.143.018s.082.006.123.006.1,0,.145,0,.082,0,.123-.009.1-.01.145-.019.08-.013.12-.022.094-.023.139-.036c.026-.009.054-.013.079-.022l.029-.013a1.618,1.618,0,0,0,.276-.126l2.862-1.662a.86.86,0,0,0,.4-.423.462.462,0,0,0,.026-.152l.025-8.849A.716.716,0,0,1-930.357,1534.15Z" transform="translate(1080.92 -1527.722)" fill="#01354d"/>
          <g id="Group_20956" data-name="Group 20956" transform="translate(13.952 11.197)" style="isolation: isolate">
            <g id="Group_20955" data-name="Group 20955" style="isolation: isolate">
              <path id="Path_65357" data-name="Path 65357" d="M-1022.048,1539.893l-.025,8.849a6.2,6.2,0,0,0-2.168-1.948,10.516,10.516,0,0,0-1.976-.874l.026-8.849a10.533,10.533,0,0,1,1.975.874,6.2,6.2,0,0,1,2.168,1.949Z" transform="translate(1026.217 -1537.071)" fill="#9f9f9f"/>
            </g>
          </g>
          <g id="Group_20958" data-name="Group 20958" transform="translate(11.011 12.821)" style="isolation: isolate">
            <g id="Group_20957" data-name="Group 20957" style="isolation: isolate">
              <path id="Path_65358" data-name="Path 65358" d="M-1024.3,1541.268l-.026,8.849a2.78,2.78,0,0,0-1.64-2.292,7.079,7.079,0,0,0-2.257-.794l.025-8.849a7.106,7.106,0,0,1,2.258.794,2.781,2.781,0,0,1,1.641,2.292Z" transform="translate(1028.227 -1538.181)" fill="#013249"/>
            </g>
          </g>
          <g id="Group_20960" data-name="Group 20960" transform="translate(3.774 12.671)" style="isolation: isolate">
            <g id="Group_20959" data-name="Group 20959" style="isolation: isolate">
              <path id="Path_65359" data-name="Path 65359" d="M-1024.3,1541.268l-.026,8.849a2.78,2.78,0,0,0-1.64-2.292,7.079,7.079,0,0,0-2.257-.794l.025-8.849a7.106,7.106,0,0,1,2.258.794,2.781,2.781,0,0,1,1.641,2.292Z" transform="translate(1035.464 -1538.031)" fill="#013249"/>
              <path id="Path_65360" data-name="Path 65360" d="M-1026.77,1538.229l-.025,8.849a9.23,9.23,0,0,0-4.526.3l.025-8.849a9.237,9.237,0,0,1,4.526-.3Z" transform="translate(1034.032 -1538.079)" fill="#023c57"/>
              <path id="Path_65361" data-name="Path 65361" d="M-1030.438,1538.387l-.025,8.85a6.252,6.252,0,0,0-1.1.494,2.762,2.762,0,0,0-1.615,2.264l.025-8.849a2.763,2.763,0,0,1,1.615-2.265,6.269,6.269,0,0,1,1.1-.495Z" transform="translate(1033.174 -1537.936)" fill="#013249"/>
            </g>
          </g>
          <g id="Group_20962" data-name="Group 20962" transform="translate(169.714 17.691)" style="isolation: isolate">
            <g id="Group_20961" data-name="Group 20961" style="isolation: isolate">
              <path id="Path_65362" data-name="Path 65362" d="M-919.172,1541.51l-.025,8.849a.756.756,0,0,1-.027.195,1.066,1.066,0,0,1-.518.6l.025-8.849a1.065,1.065,0,0,0,.518-.6.736.736,0,0,0,.028-.194Z" transform="translate(919.743 -1541.51)" fill="#013249"/>
            </g>
          </g>
          <g id="Group_20963" data-name="Group 20963" transform="translate(168.555 18.487)">
            <path id="Path_65363" data-name="Path 65363" d="M-919.351,1542.054l-.025,8.849-1.158.673.025-8.849Z" transform="translate(920.535 -1542.054)" fill="#01354d"/>
          </g>
          <g id="Group_20964" data-name="Group 20964" transform="translate(162.032 17.202)" style="isolation: isolate">
            <path id="Path_65364" data-name="Path 65364" d="M-920.4,1542.514l-.025,8.849a1.951,1.951,0,0,1-.35.157l.025-8.85a1.8,1.8,0,0,0,.35-.156Z" transform="translate(926.948 -1540.557)" fill="#013249"/>
            <path id="Path_65365" data-name="Path 65365" d="M-918.446,1543.134a2.018,2.018,0,0,1-.407.172c-.073.023-.148.044-.224.062-.034.007-.067.016-.1.021a3.173,3.173,0,0,1-.341.05,3.541,3.541,0,0,1-.42.009c-.044,0-.086-.006-.13-.009-.1-.007-.192-.018-.285-.032-.066-.01-.13-.022-.193-.036-.032-.008-.064-.013-.1-.022a2.293,2.293,0,0,1-.294-.1l-3.426-1.422a1.409,1.409,0,0,1-.2-.1.681.681,0,0,1-.409-.557l-.026,8.849a.687.687,0,0,0,.411.558,1.44,1.44,0,0,0,.2.1l3.426,1.422a2.471,2.471,0,0,0,.294.1c.031.009.063.015.1.022s.079.022.121.029c.023,0,.048,0,.072.007.094.015.188.025.285.032.044,0,.086.007.13.009a3.342,3.342,0,0,0,.42-.01,2.892,2.892,0,0,0,.341-.048c.034-.006.066-.015.1-.023a2.011,2.011,0,0,0,.224-.06.558.558,0,0,0,.059-.016v0a1.971,1.971,0,0,0,.35-.152Z" transform="translate(924.994 -1541.176)" fill="#01354d"/>
          </g>
          <g id="Group_20965" data-name="Group 20965" transform="translate(162.058 14.714)">
            <path id="Path_65366" data-name="Path 65366" d="M-919.73,1539.711a1.411,1.411,0,0,1,.167.114l2.464,1.981a.782.782,0,0,1,.322.841,1.06,1.06,0,0,1-.518.6l-1.158.673a2.639,2.639,0,0,1-1.072.306,3.124,3.124,0,0,1-1.418-.187l-3.426-1.422a1.451,1.451,0,0,1-.2-.1c-.544-.315-.556-.8.019-1.133l2.861-1.663A2.093,2.093,0,0,1-919.73,1539.711Z" transform="translate(924.976 -1539.475)" fill="#024a6c"/>
          </g>
          <g id="Group_20967" data-name="Group 20967" transform="translate(3.774 15.881)" style="isolation: isolate">
            <g id="Group_20966" data-name="Group 20966" style="isolation: isolate">
              <path id="Path_65367" data-name="Path 65367" d="M-1024.677,1540.291l-.026,8.849a2.768,2.768,0,0,1-1.621,2.269,6.218,6.218,0,0,1-1.094.494l.025-8.849a6.148,6.148,0,0,0,1.094-.495,2.774,2.774,0,0,0,1.623-2.269Z" transform="translate(1035.838 -1540.265)" fill="#9f9f9f"/>
              <path id="Path_65368" data-name="Path 65368" d="M-1025.964,1542.18l-.025,8.849a9.227,9.227,0,0,1-4.52.3l.025-8.848a9.247,9.247,0,0,0,4.52-.3Z" transform="translate(1034.408 -1539.39)" fill="#bfbfbf"/>
              <path id="Path_65369" data-name="Path 65369" d="M-1029.251,1543.364l-.025,8.848a7.07,7.07,0,0,1-2.256-.793,2.781,2.781,0,0,1-1.643-2.3l.025-8.849a2.782,2.782,0,0,0,1.643,2.3,7.118,7.118,0,0,0,2.256.794Z" transform="translate(1033.174 -1540.273)" fill="#9f9f9f"/>
            </g>
          </g>
          <g id="Group_20968" data-name="Group 20968" transform="translate(3.799 12.672)">
            <path id="Path_65370" data-name="Path 65370" d="M-1023.663,1539.023c2.183,1.261,2.186,3.3.019,4.562a8.674,8.674,0,0,1-7.871,0c-2.182-1.26-2.19-3.3-.027-4.56A8.684,8.684,0,0,1-1023.663,1539.023Z" transform="translate(1033.157 -1538.079)" fill="#ededed"/>
          </g>
          <path id="Path_65371" data-name="Path 65371" d="M-996.2,1541.614c-.294-.171-.6-.333-.9-.491-.082-.042-.165-.085-.25-.127-.261-.132-.526-.259-.8-.383l-.159-.075c-.317-.142-.641-.278-.967-.409-.083-.034-.167-.064-.25-.1q-.4-.156-.812-.3c-.081-.028-.159-.057-.24-.085-.339-.117-.68-.229-1.027-.334-.069-.022-.14-.041-.209-.062q-.434-.129-.878-.247c-.095-.025-.189-.051-.285-.075-.357-.092-.717-.18-1.08-.26l-.085-.018q-.509-.11-1.025-.207c-.048-.009-.1-.02-.145-.029l-.177-.029c-.246-.044-.492-.083-.739-.123-.1-.014-.2-.032-.3-.047-.342-.05-.685-.1-1.03-.137l-.119-.013c-.307-.035-.615-.066-.925-.1l-.331-.028c-.246-.019-.494-.038-.742-.052l-.344-.021c-.279-.016-.559-.028-.84-.036-.072,0-.145-.006-.217-.007-.351-.01-.7-.013-1.05-.013h-.273q-.4,0-.79.014l-.35.01c-.251.01-.5.022-.753.037-.105.006-.211.01-.315.018q-.524.033-1.044.079l-.07.007q-.485.047-.969.1c-.108.013-.216.028-.323.042-.244.031-.487.064-.73.1l-.338.051c-.266.042-.53.088-.793.136-.077.013-.154.026-.231.041q-.5.094-1,.2c-.082.018-.162.037-.243.056-.253.057-.5.117-.753.179-.108.028-.216.056-.323.085q-.349.092-.691.19l-.3.086c-.319.1-.636.193-.948.3l-.025,8.849c.312-.1.629-.2.948-.3.1-.029.2-.055.3-.085.228-.066.458-.129.689-.19.108-.03.216-.057.325-.085.249-.063.5-.123.752-.18l.244-.057c.331-.072.664-.141,1-.2l.231-.041c.263-.048.527-.094.793-.136.113-.018.225-.035.338-.051.243-.037.486-.07.73-.1l.323-.041c.322-.038.644-.073.969-.1l.07-.008q.52-.046,1.043-.081l.316-.017c.25-.013.5-.025.752-.035l.353-.01c.262-.009.525-.012.789-.015l.273,0c.35,0,.7,0,1.05.013l.217.007c.281.009.56.021.84.035l.345.022c.246.014.493.032.739.052.112.009.223.017.334.028q.461.042.92.1l.121.013c.345.041.688.087,1.03.137l.3.047c.246.038.492.079.736.123l.325.059c.342.064.685.131,1.022.206l.086.018c.363.081.723.168,1.08.259l.285.076c.3.078.586.161.878.246.069.022.139.041.209.061q.518.16,1.026.335c.082.028.161.057.24.085.275.1.546.2.813.3.083.032.167.064.25.1.326.132.65.268.967.41l.159.075c.269.123.535.252.8.383l.25.127c.307.158.61.321.9.491a14.634,14.634,0,0,1,5.36,4.929,8.883,8.883,0,0,1,1.033,2.455c.051.207.093.417.127.626a7.575,7.575,0,0,1,.1,1.257l.025-8.849C-989.572,1547.526-991.781,1544.167-996.2,1541.614Z" transform="translate(1041.48 -1525.532)" fill="#cbcbcb"/>
          <path id="Path_65372" data-name="Path 65372" d="M-1019.766,1544.117c-.2.118-.417.228-.634.332l-.134.066c-.214.1-.432.193-.655.279l-.119.044c-.161.06-.325.114-.49.168s-.319.1-.481.145c-.125.037-.25.07-.378.1-.167.042-.335.079-.506.116-.127.026-.255.054-.385.077-.176.032-.353.059-.531.085-.126.019-.253.04-.38.054-.189.022-.379.038-.568.054-.12.01-.24.023-.362.031-.213.013-.429.018-.644.022-.1,0-.195.009-.293.009-.313,0-.626-.007-.938-.025-.037,0-.073-.006-.11-.009-.275-.018-.549-.04-.819-.072-.107-.012-.211-.029-.318-.044-.2-.028-.4-.054-.6-.09q-.36-.064-.711-.145c-.047-.01-.094-.022-.14-.034-.253-.06-.5-.126-.748-.2l0,0c-.243-.073-.48-.156-.712-.243l-.13-.048c-.224-.086-.444-.18-.657-.279l-.121-.058c-.22-.105-.435-.215-.641-.334-1.842-1.063-2.762-2.461-2.758-3.855l-.025,8.847c0,1.4.916,2.793,2.757,3.855.206.12.421.23.641.335l.122.059c.214.1.433.191.657.279l.13.049c.233.086.47.169.711.243h0c.246.075.5.14.748.2l.142.034c.208.048.418.094.631.132.026.006.054.007.08.013.2.033.4.062.6.089.107.015.21.032.317.044q.4.046.815.072c.038,0,.076.007.114.009.311.018.625.025.938.025.1,0,.193-.007.29-.009.217,0,.431-.009.646-.021.12-.008.24-.021.36-.031.19-.016.38-.032.568-.054.128-.017.254-.035.381-.054.179-.026.356-.052.531-.085.13-.023.258-.051.386-.078.17-.037.338-.074.5-.116.127-.032.251-.067.377-.1.163-.045.323-.094.481-.146.064-.02.133-.037.2-.058.1-.035.2-.072.294-.108l.118-.044c.224-.088.442-.181.655-.279l.135-.066c.216-.1.428-.214.632-.332,1.81-1.052,2.715-2.427,2.72-3.8l.025-8.849C-1017.052,1541.69-1017.958,1543.065-1019.766,1544.117Z" transform="translate(1035.754 -1524.395)" fill="#013249"/>
          <g id="Group_20969" data-name="Group 20969" transform="translate(0.024 10.485)">
            <path id="Path_65373" data-name="Path 65373" d="M-1017.641,1540.119c1.23,1.919.522,4.159-2.133,5.7a14.56,14.56,0,0,1-13.206,0c-3.66-2.114-3.679-5.543-.047-7.654a14.769,14.769,0,0,1,11.242-.874,10.542,10.542,0,0,1,1.975.874A6.2,6.2,0,0,1-1017.641,1540.119Zm-12.679,4.159a8.673,8.673,0,0,0,7.871,0c2.167-1.258,2.164-3.3-.019-4.561a8.687,8.687,0,0,0-7.879,0c-2.163,1.257-2.155,3.3.027,4.561Z" transform="translate(1035.737 -1536.584)" fill="#024a6c"/>
          </g>
          <g id="Group_20970" data-name="Group 20970" transform="translate(89.707 22.117)">
            <path id="Path_65374" data-name="Path 65374" d="M-971.059,1545.678l-.025,8.849-3.349-1.143.025-8.849Z" transform="translate(974.433 -1544.535)" fill="#acacac"/>
          </g>
          <path id="Path_65375" data-name="Path 65375" d="M-924.471,1532.944a30.5,30.5,0,0,0-5.353-1.489v0c-.231-.042-.462-.075-.694-.111-.188-.031-.377-.064-.567-.091-.266-.038-.535-.066-.8-.1-.177-.021-.353-.044-.53-.061-.3-.029-.6-.048-.908-.067-.145-.01-.29-.025-.436-.032-.451-.023-.9-.038-1.355-.041-.323.006-.639.015-.951.026l-.256.01c-.253.01-.5.022-.75.037l-.183.01c-.3.019-.589.041-.876.064l-.206.018c-.229.021-.456.044-.68.067l-.224.023c-.278.032-.552.066-.822.1l-.091.013c-.241.034-.479.071-.714.11-.073.011-.148.023-.221.037-.225.038-.448.079-.667.121l-.116.021c-.253.05-.5.1-.749.16l-.191.045c-.195.047-.389.094-.581.144l-.183.047c-.239.064-.474.13-.708.2l-.129.04q-.294.087-.583.184c-.064.021-.129.042-.193.064l-.157.051c-.06.022-.119.045-.178.066-.215.076-.427.155-.639.236-.1.037-.19.073-.285.111-.24.1-.477.195-.714.3-.054.023-.11.045-.164.07-.288.126-.575.259-.86.4l-.23.115q-.318.156-.633.323c-.094.048-.187.1-.281.149-.208.113-.417.228-.625.347-.077.044-.156.086-.234.131-.281.164-.563.331-.844.5l-.137.086q-.358.223-.719.458l-.276.183q-.305.2-.614.413c-.089.063-.181.124-.272.187-.255.177-.509.357-.768.542l-.106.073c-.294.212-.591.432-.891.655l-.266.2c-.219.165-.44.332-.664.5l-.3.232q-.353.272-.715.556c-.078.061-.155.12-.234.183q-.476.373-.965.764c-.076.06-.154.123-.23.184l-.8.638-.345.28c-.249.2-.5.405-.758.613l-.331.266c-.342.278-.69.56-1.046.85-1.935,1.571-4.124,3.35-6.573,5.265-1.131.891-3.027,2.591-4.073,3.542l-.025,8.849c1.045-.951,2.942-2.651,4.073-3.542,2.449-1.915,4.637-3.694,6.573-5.265.355-.29.7-.571,1.046-.85l.329-.266.759-.614.345-.278c.269-.218.534-.43.8-.639l.227-.183q.491-.39.968-.765l.231-.181q.362-.283.715-.554l.3-.234c.224-.171.445-.338.664-.5l.266-.2c.3-.222.6-.442.892-.654l.1-.072q.389-.279.772-.544c.091-.063.18-.126.271-.187.206-.141.409-.278.614-.412q.138-.093.277-.183.36-.234.718-.458c.045-.028.091-.058.138-.086.281-.174.563-.342.844-.5.077-.045.155-.088.234-.133q.311-.175.625-.345c.092-.052.186-.1.281-.149q.316-.167.634-.325c.078-.037.154-.076.23-.114.285-.138.571-.271.86-.4l.164-.069c.236-.1.474-.2.714-.3.1-.038.19-.074.285-.111.212-.081.424-.16.639-.236.111-.04.222-.079.335-.117.064-.022.128-.044.193-.064.193-.064.388-.125.585-.184l.126-.039c.234-.069.471-.136.709-.2l.183-.047c.191-.05.386-.1.581-.143l.192-.045c.246-.056.5-.11.749-.159l.117-.022q.329-.064.666-.121c.073-.013.146-.025.221-.037.236-.04.473-.076.714-.11l.091-.013q.406-.055.822-.1l.224-.023c.224-.025.45-.047.68-.067l.2-.018c.288-.025.581-.046.878-.064l.183-.01q.371-.022.751-.036l.256-.01c.312-.011.627-.022.951-.028.452,0,.9.019,1.353.042.151.008.3.022.448.032.3.021.6.038.9.067.178.016.356.041.534.062.266.031.534.058.8.1.19.026.379.06.567.091a30.516,30.516,0,0,1,6.045,1.6,20.211,20.211,0,0,1,2.046.982l.025-8.848A20.186,20.186,0,0,0-924.471,1532.944Z" transform="translate(1065.2 -1528.707)" fill="#ababab"/>
          <g id="Group_20971" data-name="Group 20971" transform="translate(89.732)">
            <path id="Path_65376" data-name="Path 65376" d="M-918.7,1533.014a2.555,2.555,0,0,0-.988.294l-1.157.673a1.016,1.016,0,0,0-.527.655,20.229,20.229,0,0,0-2.045-.983,30.666,30.666,0,0,0-10.647-1.993c-11.578.208-16.219,3.97-26.356,12.208-1.935,1.571-4.124,3.35-6.573,5.265-1.131.891-3.027,2.591-4.073,3.542l-3.349-1.143c1.052-.955,3.063-2.761,4.3-3.736,2.427-1.9,4.613-3.672,6.529-5.236,10.252-8.324,15.9-12.913,29.441-13.144a36.7,36.7,0,0,1,12.843,2.361A25.1,25.1,0,0,1-918.7,1533.014Z" transform="translate(974.416 -1529.417)" fill="#f9f9f9"/>
          </g>
          <g id="Group_20973" data-name="Group 20973" transform="translate(167.483 19.466)" style="isolation: isolate">
            <g id="Group_20972" data-name="Group 20972" style="isolation: isolate">
              <path id="Path_65377" data-name="Path 65377" d="M-912.205,1552.327l-.025,8.85c-.064-2.121-1.23-4.191-3.465-6.156a35.61,35.61,0,0,0-4.058-2.588c-.554-.32-1.08-.617-1.514-.862l.025-8.847c.435.242.96.54,1.514.86a35.093,35.093,0,0,1,4.058,2.589c2.235,1.965,3.4,4.033,3.466,6.154Z" transform="translate(921.268 -1542.723)" fill="#9f9f9f"/>
            </g>
          </g>
          <g id="Group_20975" data-name="Group 20975" transform="translate(84.299 24.052)" style="isolation: isolate">
            <g id="Group_20974" data-name="Group 20974" style="isolation: isolate">
              <path id="Path_65378" data-name="Path 65378" d="M-967.795,1545.858l-.026,8.849a.32.32,0,0,1-.105.227c-1.121,1.115-6.586,6.56-8.128,8.543a8.322,8.322,0,0,0-2.076,4.99l.025-8.849a8.322,8.322,0,0,1,2.076-4.99c1.542-1.984,7.007-7.428,8.128-8.543a.329.329,0,0,0,.107-.227Z" transform="translate(978.13 -1545.858)" fill="#00beac"/>
            </g>
          </g>
          <g id="Group_20977" data-name="Group 20977" transform="translate(76.08 37.784)" style="isolation: isolate">
            <g id="Group_20976" data-name="Group 20976" style="isolation: isolate">
              <path id="Path_65379" data-name="Path 65379" d="M-975.259,1566.393l-.025,8.849c-5.66-3.554-8.475-7.243-8.464-11.147l.025-8.849c-.01,3.9,2.8,7.594,8.464,11.147Z" transform="translate(983.748 -1555.245)" fill="#00beac"/>
            </g>
          </g>
          <g id="Group_20978" data-name="Group 20978" transform="translate(140.476 17.885)">
            <path id="Path_65380" data-name="Path 65380" d="M-908.407,1542.518a36.469,36.469,0,0,1,4.513,2.92c2.652,2.333,4.042,4.817,4.114,7.383-.359,7.889-8.257,11.178-22.594,17.142-2.69,1.118-5.745,2.389-9.021,3.8-1.649.712-4.683,1.855-6.351,2.475l-1.984-1.935c1.65-.616,4.509-1.693,6.012-2.341,3.3-1.425,6.367-2.7,9.07-3.824,14.186-5.9,20.672-8.6,20.987-15.308-.065-2.121-1.23-4.19-3.466-6.154a35.083,35.083,0,0,0-4.058-2.589c-.554-.321-1.08-.618-1.514-.86a2.64,2.64,0,0,0,1.073-.306l1.158-.673a1.061,1.061,0,0,0,.518-.6C-909.539,1541.873-909,1542.176-908.407,1542.518Z" transform="translate(939.729 -1541.643)" fill="#f9f9f9"/>
          </g>
          <path id="Path_65381" data-name="Path 65381" d="M-922.993,1566.426c-2.69,1.118-5.745,2.389-9.022,3.8-1.649.712-4.683,1.855-6.35,2.475l-.025,8.849c1.668-.62,4.7-1.764,6.349-2.475,3.277-1.407,6.333-2.679,9.022-3.8,14.338-5.966,22.236-9.253,22.594-17.143l.025-8.849C-900.758,1557.173-908.656,1560.462-922.993,1566.426Z" transform="translate(1080.825 -1520.221)" fill="#ababab"/>
          <g id="Group_20979" data-name="Group 20979" transform="translate(140.451 50.542)">
            <path id="Path_65382" data-name="Path 65382" d="M-937.737,1565.9l-.025,8.849-1.984-1.936.025-8.849Z" transform="translate(939.746 -1563.966)" fill="#919191"/>
          </g>
          <g id="Group_20981" data-name="Group 20981" transform="translate(84.226 50.264)" style="isolation: isolate">
            <g id="Group_20980" data-name="Group 20980" style="isolation: isolate">
              <path id="Path_65383" data-name="Path 65383" d="M-976.646,1566.24l-.025,8.849a2.809,2.809,0,0,1-1.51-2.464l.025-8.849a2.81,2.81,0,0,0,1.51,2.463Z" transform="translate(978.18 -1563.776)" fill="#49d6c9"/>
            </g>
          </g>
          <g id="Group_20982" data-name="Group 20982" transform="translate(85.736 52.728)">
            <path id="Path_65384" data-name="Path 65384" d="M-976.778,1565.66l-.025,8.849-.345-.2.025-8.849Z" transform="translate(977.148 -1565.461)" fill="#a02e24"/>
          </g>
          <g id="Group_20984" data-name="Group 20984" transform="translate(103.896 53)" style="isolation: isolate">
            <g id="Group_20983" data-name="Group 20983" style="isolation: isolate">
              <path id="Path_65385" data-name="Path 65385" d="M-964.683,1565.646l-.025,8.847a1.392,1.392,0,0,1-.026.243l.025-8.849a1.378,1.378,0,0,0,.026-.241Z" transform="translate(964.734 -1565.646)" fill="#9f2e24"/>
            </g>
          </g>
          <g id="Group_20985" data-name="Group 20985" transform="translate(86.081 52.927)">
            <path id="Path_65386" data-name="Path 65386" d="M-972.413,1568.18l-.025,8.849-4.474-2.583.025-8.849Z" transform="translate(976.912 -1565.597)" fill="#a02e24"/>
          </g>
          <g id="Group_20986" data-name="Group 20986" transform="translate(90.554 55.51)">
            <path id="Path_65387" data-name="Path 65387" d="M-973.484,1567.561l-.025,8.849-.345-.2.025-8.849Z" transform="translate(973.854 -1567.362)" fill="#49d6c9"/>
          </g>
          <g id="Group_20988" data-name="Group 20988" transform="translate(90.899 55.709)" style="isolation: isolate">
            <g id="Group_20987" data-name="Group 20987" style="isolation: isolate">
              <path id="Path_65388" data-name="Path 65388" d="M-967.565,1567.948l-.025,8.848a13.8,13.8,0,0,1-4.648.023l.025-8.85a13.8,13.8,0,0,0,4.648-.022Z" transform="translate(974.257 -1567.29)" fill="#49d6c9"/>
              <path id="Path_65389" data-name="Path 65389" d="M-971.573,1568.178l-.025,8.85a6.428,6.428,0,0,1-2.02-.68l.025-8.849a6.43,6.43,0,0,0,2.02.68Z" transform="translate(973.618 -1567.498)" fill="#49d6c9"/>
            </g>
          </g>
          <path id="Path_65390" data-name="Path 65390" d="M-992.983,1558.458l-8.494,4.936c-.187.113-.384.224-.578.336l-2.781,1.615-9.072,5.272h0c-4.337,2.521-6.508,5.827-6.519,9.137l-.025,8.85c.01-3.311,2.181-6.617,6.519-9.138v0l9.071-5.272,2.781-1.615c.195-.113.391-.224.578-.337l8.494-4.936c5.555-3.229,8.334-7.462,8.347-11.7l.025-8.849C-984.649,1551-987.429,1555.231-992.983,1558.458Z" transform="translate(1042.838 -1521.391)" fill="#ababab"/>
          <g id="Group_20989" data-name="Group 20989" transform="translate(76.106 21.637)">
            <path id="Path_65391" data-name="Path 65391" d="M-965.435,1546.3c.246.142.31.37.126.553-1.12,1.115-6.586,6.56-8.128,8.543-3.587,4.616-2.573,8.4,3.416,12.384a4.833,4.833,0,0,1,2.9.534l10.253,5.919c.79.456,1.074,1.018.956,1.583,6.5,2.974,12.749,3.38,20.274,1.4,2.186-.573,7.457-2.269,14.467-4.652l.268-.093a1.252,1.252,0,0,1,.938.078l.609.566,1.984,1.935.929.906a.3.3,0,0,1,.085.348.578.578,0,0,1-.363.279c-3.593,1.223-11.952,4.039-15.5,4.969-10.843,2.847-20.693,1.987-30.014-2.613-2.456.423-5.184.2-6.668-.658l-.345-.2-4.474-2.582-.345-.2a2.8,2.8,0,0,1-1.191-3.8c-8.9-5.587-10.763-11.509-5.675-18.076,1.895-2.442,8.475-8.934,8.539-9a1.154,1.154,0,0,1,1.078-.158l1.22.416,3.349,1.143,1.165.4A.869.869,0,0,1-965.435,1546.3Z" transform="translate(983.73 -1544.207)" fill="url(#linear-gradient-5)"/>
          </g>
          <g id="Group_20992" data-name="Group 20992" transform="translate(97.567 53.617)" style="isolation: isolate">
            <path id="Path_65392" data-name="Path 65392" d="M-923.128,1566.068l-.025,8.849a.27.27,0,0,1-.026.114.58.58,0,0,1-.363.279c-3.593,1.223-11.952,4.038-15.5,4.968-10.844,2.848-20.693,1.988-30.014-2.613l.025-8.848c9.322,4.6,19.172,5.46,30.015,2.613,3.552-.93,11.911-3.747,15.5-4.97a.578.578,0,0,0,.363-.279A.274.274,0,0,0-923.128,1566.068Z" transform="translate(969.06 -1566.068)" fill="#00beac"/>
            <g id="Group_20991" data-name="Group 20991" clip-path="url(#clip-path)">
              <g id="Group_20990" data-name="Group 20990" style="isolation: isolate">
                <path id="Path_65393" data-name="Path 65393" d="M-937.532,1566.068l-.025,8.849a.266.266,0,0,1-.027.114.578.578,0,0,1-.358.278l.025-8.849a.579.579,0,0,0,.358-.278.271.271,0,0,0,.026-.114Z" transform="translate(983.465 -1566.068)" fill="#00beac"/>
                <path id="Path_65394" data-name="Path 65394" d="M-926.927,1566.336l-.025,8.849h0c-3.594,1.225-11.954,4.039-15.506,4.97a43.852,43.852,0,0,1-19.224,1l.026-8.849a43.875,43.875,0,0,0,19.223-1c3.552-.93,11.911-3.747,15.5-4.97h0Z" transform="translate(972.474 -1565.944)" fill="#00beac"/>
                <path id="Path_65395" data-name="Path 65395" d="M-958.243,1571.557l-.026,8.849a40.862,40.862,0,0,1-10.79-3.61l.025-8.848a40.871,40.871,0,0,0,10.792,3.609Z" transform="translate(969.06 -1565.198)" fill="#00beac"/>
              </g>
            </g>
          </g>
          <g id="Group_20993" data-name="Group 20993" transform="translate(16.083 55.51)" style="isolation: isolate">
            <path id="Path_65397" data-name="Path 65397" d="M-975.564,1582.066c-.313.181-.633.355-.957.528l-.2.105c-.317.164-.638.325-.963.48l-.176.081c-.306.145-.617.284-.93.418l-.135.059c-.339.145-.683.282-1.031.417l-.227.088q-.52.2-1.053.381c-.426.147-.857.285-1.294.419-.092.028-.186.053-.28.08-.345.1-.694.2-1.044.3-.162.044-.328.082-.49.123-.286.073-.572.145-.862.212-.184.042-.371.082-.557.121-.271.06-.543.119-.816.172-.2.038-.394.073-.591.11-.268.05-.534.1-.8.142-.2.033-.406.064-.612.095-.266.039-.534.079-.8.114-.206.028-.414.054-.622.079-.27.032-.539.063-.808.09l-.625.061q-.41.037-.822.065c-.206.015-.411.031-.616.042-.282.018-.565.031-.848.042-.2.009-.4.019-.6.025-.3.009-.6.013-.894.018-.184,0-.369.008-.553.008q-.513,0-1.027-.012c-.139,0-.279,0-.42-.006-.481-.011-.962-.032-1.444-.058-.088,0-.176-.013-.263-.018-.392-.025-.784-.052-1.175-.085-.171-.015-.341-.033-.512-.05-.307-.029-.613-.058-.918-.094-.192-.022-.384-.048-.575-.073-.282-.035-.565-.072-.846-.113-.2-.029-.4-.062-.6-.092-.271-.044-.541-.088-.809-.135a36.821,36.821,0,0,1-11.9-4.137c-5.663-3.271-8.492-7.572-8.48-11.867l-.025,8.849c-.012,4.295,2.817,8.6,8.48,11.867a36.645,36.645,0,0,0,11.656,4.092v0c.08.015.161.026.241.039.269.048.54.093.812.136.2.031.4.063.6.092.281.041.563.078.845.113.192.025.382.051.575.073.3.035.612.064.918.093.171.016.341.036.511.05.392.034.784.06,1.176.085.088,0,.176.013.263.017q.72.04,1.443.059c.142,0,.284,0,.426.005.341.006.68.012,1.022.012.185,0,.369-.005.553-.007.3,0,.595-.009.894-.018l.6-.025c.282-.013.566-.025.847-.042.206-.012.413-.028.617-.043.275-.02.549-.041.822-.066.208-.019.417-.039.625-.062.269-.028.538-.057.807-.089.208-.025.414-.052.622-.079.268-.036.534-.074.8-.114.2-.031.408-.061.611-.1.269-.045.535-.092.8-.142.2-.037.4-.072.591-.11.274-.054.546-.113.818-.173.186-.039.371-.079.556-.121.29-.067.576-.139.863-.212.163-.041.326-.079.487-.123.354-.094.7-.195,1.052-.3.091-.026.183-.05.274-.078q.656-.2,1.294-.42l.035-.01c.344-.119.682-.243,1.018-.37l.228-.088c.347-.135.69-.272,1.03-.417l.135-.058c.314-.135.625-.275.93-.419.059-.026.117-.053.174-.08.326-.155.647-.316.963-.48l.2-.1c.323-.173.644-.347.957-.529l25.3-14.7.025-8.849Z" transform="translate(1024.76 -1567.362)" fill="#ababab"/>
            <path id="Path_65398" data-name="Path 65398" d="M-1004.6,1585.264l-.025,8.849a36.624,36.624,0,0,1-11.656-4.1c-5.663-3.271-8.492-7.572-8.48-11.867l.025-8.849c-.012,4.3,2.817,8.6,8.482,11.867a36.626,36.626,0,0,0,11.655,4.1Z" transform="translate(1024.76 -1566.465)" fill="#9f9f9f"/>
          </g>
          <g id="Group_20994" data-name="Group 20994" transform="translate(13.978 8.624)">
            <path id="Path_65399" data-name="Path 65399" d="M-990.456,1540.187c11.254,6.5,11.314,17.072.133,23.569l-8.494,4.936c-.187.113-.383.224-.578.336l-2.781,1.615-9.072,5.272c-8.73,5.075-8.685,13.33.1,18.4s23.04,5.073,31.771,0l25.3-14.7,4.473,2.582-25.3,14.7c-11.182,6.5-29.437,6.5-40.689,0s-11.316-17.071-.133-23.569l8.487-4.933c.191-.114.389-.225.585-.34l2.781-1.616,9.072-5.271c8.731-5.075,8.682-13.332-.1-18.4-7.368-4.256-18.58-4.943-27.156-2.063a6.205,6.205,0,0,0-2.168-1.948,10.538,10.538,0,0,0-1.975-.874C-1015.1,1533.81-1000.172,1534.576-990.456,1540.187Z" transform="translate(1026.199 -1535.313)" fill="#f9f9f9"/>
          </g>
        </g>
      </g>
    </g>
  </g>
</svg>
