<svg xmlns="http://www.w3.org/2000/svg" width="234.954" height="32.071" viewBox="0 0 234.954 32.071">
  <g id="Group_21382" data-name="Group 21382" transform="translate(108)">
    <text id="AL-TAWASOL" transform="translate(59 28.071)" font-size="19" font-family="BerlinSansFBDemi-Bold, Berlin Sans FB Demi" font-weight="700"><tspan x="-59.203" y="0">AL</tspan><tspan y="0" fill="#15c2ea">-</tspan><tspan y="0">TAWASOL</tspan></text>
    <text id="Powered_by" data-name="Powered by" transform="translate(-57 27.046)" font-size="19" font-family="BerlinSansFBDemi-Bold, Berlin Sans FB Demi" font-weight="700"><tspan x="-50.228" y="0">Powered by</tspan></text>
    <path id="Path_61278" data-name="Path 61278" d="M2862.775,1104.061l11.464,4.89q-.07-1.973-.14-3.945a24.684,24.684,0,0,1,8,.761c8.6,2.3,13.363,8.825,13.8,8.4.354-.343-2.613-5.236-7.978-9.034a30.6,30.6,0,0,0-14.116-5.289q.056-1.874.113-3.748Z" transform="translate(-2768.971 -1096.099)" fill="#15c2ea"/>
    <path id="Path_61279" data-name="Path 61279" d="M2903.839,1127.588l-2.321,1.29.774.516a6.791,6.791,0,0,1-2.064,2.064c-2.244,1.406-4.708.944-4.712,1.142,0,.179,2.03.8,4.2.148a7.306,7.306,0,0,0,3.612-2.58l.516.516Z" transform="translate(-2796.46 -1104.69)" fill="#15c2ea"/>
  </g>
</svg>
