<svg xmlns="http://www.w3.org/2000/svg" width="139.45" height="171.729" viewBox="0 0 139.45 171.729">
  <g id="Group_21192" data-name="Group 21192" transform="translate(0 0)">
    <g id="_ÎÓÈ_43" data-name="—ÎÓÈ_43" transform="translate(0 157.992)">
      <path id="Path_65839" data-name="Path 65839" d="M1323.451,1199a21.047,21.047,0,0,0,5.9.376,3.579,3.579,0,0,1,1.633.229c.5.241,1.513,1.566,1.369,2.1a2.139,2.139,0,0,1-1.636,1.2c-1.536.332-2.325.547-3.86.878a22.741,22.741,0,0,1-6.629.083c-1.1-.15-1.771-.341-2.519-.473-.672-.119-2.722-.313-3.095.317-.215.363-.38.8-.959,1.015a13.349,13.349,0,0,1-4.878.55c-3.364-.214-3.612-.944-3.631-1.045a7.979,7.979,0,0,1-.013-2.33c.031-.216.258-.533.312-.745a9.4,9.4,0,0,0,.13-1.113,11.609,11.609,0,0,1,.213-1.549c.068-.289.142-.576.219-.864a2.52,2.52,0,0,0,.164-.71c.5-.077,1.026-.071,1.531-.1l9.147-.585a7.481,7.481,0,0,1,2.1-.121c.539.149.514.32.862.724A7.176,7.176,0,0,0,1323.451,1199Z" transform="translate(-1305.058 -1196.059)" fill="#020f17"/>
      <path id="Path_65840" data-name="Path 65840" d="M1389.264,1209.639a2.289,2.289,0,0,0-.635-.593,3.46,3.46,0,0,0-1.352-.347c-2.628-.33-4.516.078-6.716-.625a12.543,12.543,0,0,1-2.914-1.591,9.173,9.173,0,0,1-2.166-2.149,9.617,9.617,0,0,1-.738-1.057c-.3-.517-.6-.467-1.217-.564a35.078,35.078,0,0,0-7.686-.367,6.391,6.391,0,0,0-3.618,1.046,4.7,4.7,0,0,0-1.576,2.855,14.717,14.717,0,0,0-.3,2.488,3.467,3.467,0,0,0-.407,1.775c-.014.366-.006.733.012,1.085a1.12,1.12,0,0,0,.159.613,1.142,1.142,0,0,0,.63.358,21.692,21.692,0,0,0,6.992.576c.251-.066.475-.668.862-.83a3.364,3.364,0,0,1,2.268.341,14.3,14.3,0,0,0,6.693,1.511c3.9.084,7.753.066,11.082-1.976a3.174,3.174,0,0,0,1.072-.869,1.081,1.081,0,0,0-.088-1.174C1389.518,1210.005,1389.369,1209.774,1389.264,1209.639Z" transform="translate(-1343.831 -1200.453)" fill="#031521"/>
    </g>
    <g id="_ÎÓÈ_64" data-name="—ÎÓÈ_64" transform="translate(1.001 94.699)">
      <path id="Path_65841" data-name="Path 65841" d="M1343.95,1011.735l-34.153-5.127c-.984-.048-1.372-.827-1.324-1.811l2.321-21.839c.482-.461-.159-.84.6-1.373a10.126,10.126,0,0,1,3.521-1.252l33.681,4.94c1.086.19.893.467.844,1.451l-2.071,23.482C1347.426,1011.358,1344.934,1011.783,1343.95,1011.735Z" transform="translate(-1308.469 -980.333)" fill="#ba6b0d"/>
      <path id="Path_65842" data-name="Path 65842" d="M1352.926,987.563a1.2,1.2,0,0,1,.792-.962c.35-.138,1.361-.637,1.361-.637,0-.341-.07-.559-.918-.7l-33.651-4.936a10.125,10.125,0,0,0-3.521,1.252c-.757.533-.115.912-.6,1.373Z" transform="translate(-1314.067 -980.333)" fill="#f28a11"/>
      <path id="Path_65843" data-name="Path 65843" d="M1343.834,1014.518l-34.038-5.294c-.984-.048-1.372-.827-1.324-1.812l2.321-21.839c.091-1.456.738-1.578,1.722-1.531l34.064,4.932c.91.142.814.675.715,1.631l-2.287,22.74C1344.96,1014.33,1344.819,1014.566,1343.834,1014.518Z" transform="translate(-1308.469 -982.948)" fill="#f28a11"/>
    </g>
    <g id="_ÎÓÈ_42" data-name="—ÎÓÈ_42" transform="translate(0.206 89.617)">
      <path id="Path_65844" data-name="Path 65844" d="M1310,997.067c-2.567,10.406-5.126,20.69-3.948,32.2a30.5,30.5,0,0,1,.133,5.077,27.187,27.187,0,0,0,14.146-2.032c-1.491-14.475.806-15.031,3.2-22.716,4.551-14.628,7.092-29.792,9.62-44.9a100.669,100.669,0,0,1-10.8-.788c-1.838-.233-3.654-.595-5.486-.852-1.764-.247-1.752.5-1.671,2.1a82.393,82.393,0,0,1-2.1,21.517C1312.257,990.564,1310.958,993.2,1310,997.067Z" transform="translate(-1305.762 -963.01)" fill="#051c2b"/>
    </g>
    <g id="_ÎÓÈ_41" data-name="—ÎÓÈ_41" transform="translate(9.341 84.811)">
      <path id="Path_65845" data-name="Path 65845" d="M1344.206,1026.95a5.412,5.412,0,0,0,1.964.564,19.221,19.221,0,0,0,13.035-3.821c-1.12-2.533-2.675-5.06-3.2-7.762-1.835-9.466-.475-19.755.827-29.371,1.674-12.361,3.7-24.722,2.8-37.163q-9.982-.479-19.964-.958c-.357-.017-1.6-2.069-1.862-1.781-.28.3-1.327,3.741-.741,8.875.337,2.951,1.973,11.8,2.355,14.743.767,5.913,1.289,8.567,1.637,14.521.449,7.689.39,15.4.841,23.086a114.487,114.487,0,0,0,1.2,11.535A55.036,55.036,0,0,1,1344.206,1026.95Z" transform="translate(-1336.894 -946.63)" fill="#06263b"/>
    </g>
    <g id="_ÎÓÈ_34" data-name="—ÎÓÈ_34" transform="translate(19.474 3.367)">
      <path id="Path_65846" data-name="Path 65846" d="M1391.836,677.508c.021,1.5-1.372,2.1-.153,4.291.259.464.44.89.688,1.359a1.232,1.232,0,0,1,.158.851.873.873,0,0,1-.5.444,2.494,2.494,0,0,1-.516.133c-.7.125-1.218.393-1.338,1.118-.062.372-.037.753-.09,1.126a4.834,4.834,0,0,1-.394,1.24,2.486,2.486,0,0,0-.386.972,4.426,4.426,0,0,1-.055,1.6c-.238.615-1.207.6-1.867.617s-1.287-.026-1.947-.03a2.739,2.739,0,0,0-2.015.737,4.08,4.08,0,0,0-.855.983c-.254.394-.625,1.938-.856,2.366-2.841-2.249-6.678-4.951-10.274-5.406a21.881,21.881,0,0,0,1.384-7.12,31.827,31.827,0,0,1,1.015-7.2,9.316,9.316,0,0,1,4.3-5.648c2.469-1.274,5.426-.923,8.178-.541a5.529,5.529,0,0,1,2.635.641,9.7,9.7,0,0,1,1.452,2.068A12,12,0,0,1,1391.836,677.508Z" transform="translate(-1371.43 -669.044)" fill="#f8b690"/>
    </g>
    <g id="_ÎÓÈ_36" data-name="—ÎÓÈ_36" transform="translate(19.191)">
      <path id="Path_65847" data-name="Path 65847" d="M1382.251,674.011a12.56,12.56,0,0,1,.408-2.933,4.211,4.211,0,0,1,1.67-2.377c.18-.114.392-.236.432-.445.05-.263-.2-.475-.389-.66a2.346,2.346,0,0,1-.381-2.867c.5-1,3.64-1.545,6.341.644,1.125-1.345,1.169-4.047.817-5.161s-1.284-1.586-2.347-2.072c-1.758-.8-6.48-.6-8.356-.354-1.747.228-6.43,1.516-8.778,5.117a7.75,7.75,0,0,0-1.148,3.159c-.333,2.738,1,4.616,1.467,7.335a9.566,9.566,0,0,1,.049,2.5c.9-.686,2.537-.405,3.435-3.244.309-.976-.073-2.3.55-3.231a2.277,2.277,0,0,1,2.622-.77,2.933,2.933,0,0,1,1.882,2.53,19.566,19.566,0,0,0,.171,2.433C1380.826,674.029,1382.236,674.258,1382.251,674.011Z" transform="translate(-1370.468 -657.567)" fill="#212c55"/>
    </g>
    <g id="_ÎÓÈ_39" data-name="—ÎÓÈ_39" transform="translate(29.013 31.004)">
      <path id="Path_65848" data-name="Path 65848" d="M1407.915,767.9c.414,1.892,1.455,4.237,2.171,7.009-.4-.394-1.463-1.391-1.868-1.785a11.833,11.833,0,0,1-4.24-8.494.614.614,0,0,1,.527-.855,9.805,9.805,0,0,1,1.6-.513c.444-.062.415-.036.621.3a6.792,6.792,0,0,1,.971,2.053C1407.875,766.174,1407.7,767.366,1407.915,767.9Z" transform="translate(-1403.945 -763.238)" fill="#18898d"/>
    </g>
    <g id="_ÎÓÈ_37" data-name="—ÎÓÈ_37" transform="translate(19.4 20.975)">
      <path id="Path_65849" data-name="Path 65849" d="M1382.771,743.446c-.033.09-.937-.067-1.036-.116a5.493,5.493,0,0,1-.972-.853q-.965-.864-1.9-1.767a64,64,0,0,1-7.3-8.481c-.036-.05-.407-.471-.384-.531l1.051-2.641a36.821,36.821,0,0,1,6.289,4.44c1.331,1.146,4.4,3.787,4.971,5.437A13.5,13.5,0,0,1,1382.771,743.446Z" transform="translate(-1371.18 -729.057)" fill="#bedfe4"/>
    </g>
    <g id="_ÎÓÈ_38__x28_ÍÓÔË__x29_" data-name="—ÎÓÈ_38__x28_ÍÓÔËˇ_x29_" transform="translate(6.644 22.359)">
      <path id="Path_65850" data-name="Path 65850" d="M1340.46,733.773c-1.61,6.538-8.7,7.716-10.06,16.933-1.575,10.68,4.058,20.972,1.932,31.458a54.837,54.837,0,0,1-2.58,7.424,33.968,33.968,0,0,0-1.923,9.405c-.073,1.218-.389,2.671.382,3.616.832,1.021,2.608,1.157,3.913,1.344l19.994,2.867a13.211,13.211,0,0,0,3.641.182,3.571,3.571,0,0,0,2.794-1.484,9.046,9.046,0,0,0,1.125-3.852c.733-5.161,1.9-12.171,2.057-17.146.252-8.194-.357-29.046-14.744-45.557A25.545,25.545,0,0,0,1340.46,733.773Z" transform="translate(-1327.704 -733.773)" fill="#0a3c5f"/>
    </g>
    <g id="_ÎÓÈ_48" data-name="—ÎÓÈ_48" transform="translate(58.165 60.932)">
      <path id="Path_65851" data-name="Path 65851" d="M1509.5,865.436a13.814,13.814,0,0,1-2.414-.177,2.928,2.928,0,0,0-2.275.6,3.626,3.626,0,0,0-.834,1.847,16.352,16.352,0,0,0-.653,4.893,2.492,2.492,0,0,0,.206.93,1.062,1.062,0,0,0,.705.6,1.635,1.635,0,0,0,.912-.173l3.005-1.2a5.913,5.913,0,0,0,2.293-1.351,3.712,3.712,0,0,0,.865-2.521,7.348,7.348,0,0,0-.61-2.642C1510.5,865.73,1509.992,865.687,1509.5,865.436Z" transform="translate(-1503.304 -865.243)" fill="#f4a086"/>
    </g>
    <g id="_ÎÓÈ_45" data-name="—ÎÓÈ_45" transform="translate(47.945 59.563)">
      <path id="Path_65852" data-name="Path 65852" d="M1474.222,861.482a2.8,2.8,0,0,1,1.594-.9c.741-.026,1.324.583,1.948.984.876.561,1.945.74,2.863,1.231a4.374,4.374,0,0,1,2.2,2.8,3.8,3.8,0,0,1-.883,3.414,10.644,10.644,0,0,0-1.305,1.3c-.3.459-.413,1.019-.689,1.495a1.218,1.218,0,0,1-1.35.687,1.973,1.973,0,0,1-.726-.664,5.5,5.5,0,0,0-3.523-1.661c-1.317-.174-2.655-.09-3.978-.2a2.077,2.077,0,0,1-1.775-.847c-.343-.672.069-1.467.469-2.106l3.1-4.944a3.672,3.672,0,0,0,1.006.04A2.684,2.684,0,0,0,1474.222,861.482Z" transform="translate(-1468.47 -860.578)" fill="#f8b690"/>
    </g>
    <g id="_ÎÓÈ_46" data-name="—ÎÓÈ_46" transform="translate(53.371 58.977)">
      <path id="Path_65853" data-name="Path 65853" d="M1498.121,864.093a7.213,7.213,0,0,0-1.369-1.951,4.918,4.918,0,0,0-1.607-1.038,2.206,2.206,0,0,0-1.14-.3,1.982,1.982,0,0,0-1.145.354,3.343,3.343,0,0,1-1.461.566c-.476.032-1.225-.2-1.252-.676-.016-.3.551-.582.744-.807a4.433,4.433,0,0,1,3.142-1.656,8.117,8.117,0,0,1,1.846.494c.438.13.937.225,1.375.355a10.154,10.154,0,0,1,3.3,1.544c.635.487,2.2,2.357,1.14,3.082C1500.671,864.756,1498.591,865.15,1498.121,864.093Z" transform="translate(-1489.213 -858.581)" fill="#f4a086"/>
      <path id="Path_65854" data-name="Path 65854" d="M1486.981,891.314a5.763,5.763,0,0,0,4.048,2.586.769.769,0,0,0,.713-.076,1.517,1.517,0,0,0,.214-.316.465.465,0,0,0,.074-.252.428.428,0,0,0-.137-.271c-.106-.087-.258-.082-.335-.2a1.192,1.192,0,0,1-.118-.309.947.947,0,0,0-.43-.581c-.283-.154-.6.03-.836-.323a1,1,0,0,0-.364-.38c-.456-.179-.662.1-.934-.092-.125-.09-.2-.325-.354-.4a1.026,1.026,0,0,0-.439-.125C1487.656,890.535,1486.836,890.744,1486.981,891.314Z" transform="translate(-1486.964 -881.185)" fill="#f4a086"/>
    </g>
    <g id="_ÎÓÈ_40__x28_ÍÓÔË__x29_" data-name="—ÎÓÈ_40__x28_ÍÓÔËˇ_x29_" transform="translate(12.092 32.64)">
      <path id="Path_65855" data-name="Path 65855" d="M1361.224,777.178c-1.184-3.133-2.176-6.4-5.265-7.694-2.892-1.213-5.517-.821-7.606,1.518s-2.374,4.757-1.859,7.851c.586,3.533,5.521,14.605,7.176,17.27,1.679,2.705,2.56,6.275,5.44,7.632,2.324,1.1,5.785,1.194,8.524,1.524q2.211.266,4.428.469c1.339.124,11.279.725,12.749.949a1.634,1.634,0,0,0,.844-.021,2.843,2.843,0,0,0,1.01-1.066c.612-.972,1.078-1.393,1.712-4.858.3-1.652.008-3.431-1.349-3.858-.153-.048-1.831-.008-2.066-.015-.749-.019-12.086-.891-14.791-1.891-.748-.276-2.805-.691-3.313-1.331a15.808,15.808,0,0,1-1.2-3.741c-.538-2.227-1.245-3.7-1.91-5.892C1362.982,781.494,1362.159,779.651,1361.224,777.178Z" transform="translate(-1346.272 -768.814)" fill="#0c4770"/>
    </g>
    <g id="_ÎÓÈ_47" data-name="—ÎÓÈ_47" transform="translate(59.911 33.456)">
      <path id="Path_65856" data-name="Path 65856" d="M1532.891,773.034a12.027,12.027,0,0,0-2.008,4.953c-.851,3.716-1.917,7.412-3.061,10.994a21.083,21.083,0,0,1-2.474,5.318c-.661.954-3.766,1.722-5.551,2.091-3.075.635-5.281.966-9.4,1.489a7.137,7.137,0,0,1,1.84,5.092c0,2.19-1.429,3.746-2.986,4.888,4.489-.723,9.192-.494,15.844-2.316,1.3-.357,6-1.747,7.056-2.588,1.261-1,1.881-2.707,2.531-4.181a31.522,31.522,0,0,0,2.288-5.3,60.017,60.017,0,0,0,1.521-14.653q-.042-2.184-.244-4.361c-.067-.725-.146-1.45-.242-2.171-.075-.566-.265-.784-.865-.652C1536.046,771.875,1533.59,772.162,1532.891,773.034Z" transform="translate(-1509.257 -771.597)" fill="#00284b"/>
    </g>
    <g id="_ÎÓÈ_55" data-name="—ÎÓÈ_55" transform="translate(75.44 153.892)">
      <path id="Path_65857" data-name="Path 65857" d="M1703.707,1201.353a7.937,7.937,0,0,1,.459,2.533c-.1,1.333-1.489,2.466-2.695,3.042a8.337,8.337,0,0,1-4.028.855c-3.525-.012-3.391-.585-3.69-.79-.545-.373-.537-2.306-.44-2.958.192-1.3.629-1.389,1.016-2.465a10.941,10.941,0,0,0,.647-3.909,2.377,2.377,0,0,1,.3-1.493,2.178,2.178,0,0,1,1.8-.55l3.175.024c.832.007,3.115.218,3.207,1.352.061.748-.058,1.356,0,2.115A12.262,12.262,0,0,0,1703.707,1201.353Z" transform="translate(-1654.804 -1191.647)" fill="#031521"/>
      <path id="Path_65858" data-name="Path 65858" d="M1588.456,1187.941a7.2,7.2,0,0,1,.012,1.885c-.167.608-5.146,1.433-6.919.99-.4-.1-.57-.646-.978-.709-1.372-.209-3.01.881-4.3,1.382a21.151,21.151,0,0,1-12.347.807,2.961,2.961,0,0,1-1.54-.89c-.418-.536-.1-1.288.317-1.825a4.064,4.064,0,0,1,1.873-1.482,19.979,19.979,0,0,1,2.26-.279,11.506,11.506,0,0,0,8.843-5c.311-.451.273-.456.786-.649a2.447,2.447,0,0,1,1.178-.039l5.949.773,3.019.393c.97.126,1.053.52,1.3,1.415A10.64,10.64,0,0,1,1588.456,1187.941Z" transform="translate(-1562.184 -1182.083)" fill="#031521"/>
    </g>
    <g id="_ÎÓÈ_54" data-name="—ÎÓÈ_54" transform="translate(86.037 73.957)">
      <path id="Path_65859" data-name="Path 65859" d="M1624.7,909.648a2.923,2.923,0,0,1,1.963.385c.6.47.621,1.328.812,2.064,4.24,16.343,1.3,29.8,4.981,44.141,4.277,16.651,1.648,18.68,3.905,38.68a15.892,15.892,0,0,0-8.484-.146c-2.555-11.257-3.993-20.271-6.689-29.951-1.573-5.648-4.187-12.056-6.2-18.484-1.467,15.33.05,13.741-.5,28.7-.174,4.783-1.119,8.894-1.069,17.17-2.653,2.4-9.148,1.485-12.763-1.182.417-1.361,2.445-7.791,1.638-20.7a217.491,217.491,0,0,0-2.774-22.24c-2.69-15.293-.4-36.88,1.613-37.651,1.587-.607,3.258.07,4.967,0l6.015-.253Z" transform="translate(-1598.3 -909.636)" fill="#051c2b"/>
      <path id="Path_65860" data-name="Path 65860" d="M1656.851,956.238c-3.684-14.342-.741-27.8-4.981-44.141-.191-.736-.215-1.594-.812-2.064a2.924,2.924,0,0,0-1.964-.385l-.583.025-4.578.193a11.475,11.475,0,0,0-2.207.16,23.42,23.42,0,0,1-5.44.048c-.794-.086-3.136,2.57-3.159,2.768-1.638,14.231,3.909,27.894,4.856,30.53.825,2.3,1.864,4.458,2.646,6.75,1.67,4.891,3.566,9.718,4.954,14.7,2.7,9.68,4.754,24.128,6.7,30.136,2.089-1.188,6.1-.821,8.481.157,0-6.479-.674-10.493-.794-14.059C1659.677,972.289,1659.891,968.075,1656.851,956.238Z" transform="translate(-1622.697 -909.636)" fill="#06263b"/>
    </g>
    <g id="_ÎÓÈ_53" data-name="—ÎÓÈ_53" transform="translate(86.956 30.937)">
      <path id="Path_65861" data-name="Path 65861" d="M1607.824,763.715a25.4,25.4,0,0,1,6.037-.675q4.125-.092,8.252.112c1.272.063,2.712.234,3.474,1.255a4.288,4.288,0,0,1,.6,2.524c.271,13.865-5.1,27.507-3.893,41.322-5.093,1.764-12.1,1.515-20-.146a112.334,112.334,0,0,0,.015-22.964c-.339-3.317-.813-6.631-.864-9.97-.041-2.711-.186-7.187,1.961-9.155A10.535,10.535,0,0,1,1607.824,763.715Z" transform="translate(-1601.434 -763.011)" fill="#a2bdc2"/>
    </g>
    <g id="_ÎÓÈ_51" data-name="—ÎÓÈ_51" transform="translate(89.772 31.318)" style="isolation: isolate">
      <path id="Path_65862" data-name="Path 65862" d="M1614.948,765.448a9.357,9.357,0,0,0,.842,2.3c-1.046,2.182-3.132,13.146-3.439,15.3a111.564,111.564,0,0,0-1.278,17.481,12.632,12.632,0,0,0,.168,3.559,12.492,12.492,0,0,0,2.9,4.053,11.51,11.51,0,0,0,3.2-3.973,6.2,6.2,0,0,0,.2-3.334c-.324-5.774.616-23.5.689-26.928.039-1.886-.023-5.157.3-6.009a9.39,9.39,0,0,0,2.623-1.829,11.038,11.038,0,0,0-1.153-1.349,4.358,4.358,0,0,0-1.627-.4A4.666,4.666,0,0,0,1614.948,765.448Z" transform="translate(-1611.031 -764.309)" fill="#00beac"/>
    </g>
    <g id="_ÎÓÈ_56" data-name="—ÎÓÈ_56" transform="translate(85.329 6.802)">
      <path id="Path_65863" data-name="Path 65863" d="M1597.741,687.582a2.336,2.336,0,0,0,.068.542,10.511,10.511,0,0,1,.066,1.183,2.263,2.263,0,0,1-.48,1.484c-.451.684-2.03,1.589-1.328,2.59.284.405.914.374,1.209.768a3.353,3.353,0,0,1,.4,1.685,2.959,2.959,0,0,0,.4,1.358,1.837,1.837,0,0,1,.31,1.319,1.989,1.989,0,0,0,.131,1.348,1.3,1.3,0,0,0,.522.414c1.448.7,3.231.229,4.769.131a.874.874,0,0,1,.6.11.542.542,0,0,1,.23.4,12.753,12.753,0,0,1-.214,1.767,4.524,4.524,0,0,0,.251,1.284,2.72,2.72,0,0,0,.094.577c.126.2.526.275.752.341a11.081,11.081,0,0,0,3.774.224,12.23,12.23,0,0,0,3.091-.464,5.128,5.128,0,0,0,2.344-1.637,3.7,3.7,0,0,0,.661-2.731c-.1-1.141-.594-2.213-.762-3.347-.371-2.516.882-5.054.55-7.576a8.955,8.955,0,0,0-2.7-4.921,12.065,12.065,0,0,0-5.911-3.475,8.4,8.4,0,0,0-4.763.318,4.662,4.662,0,0,0-1.778.773c-.528.515-.964.486-1.229,1.155-.12.3-.721,2.86-.876,3.317A3.275,3.275,0,0,0,1597.741,687.582Z" transform="translate(-1595.889 -680.751)" fill="#f4a086"/>
    </g>
    <g id="_ÎÓÈ_57" data-name="—ÎÓÈ_57" transform="translate(87.112 2.987)">
      <path id="Path_65864" data-name="Path 65864" d="M1607.3,673.15a5.327,5.327,0,0,0-2.828.849,4.284,4.284,0,0,1-1.557.627c-1.419-1.4-1.147-4.592.1-5.674,2.326-2.018,11.043-1.518,14.762,1.65,1.486,1.265,3.246,3.4,3.5,5.208.739,5.293-2.032,7.07-2.39,10.162-.694-1.582-2.3-1.222-2.521-4.576a2.116,2.116,0,0,0-1.632-1.937,2,2,0,0,0-2.11,1.211,4.024,4.024,0,0,0-.505,1.367c-.073.376-.014,1.074-.354,1.324a.958.958,0,0,1-.508.157.492.492,0,0,1-.406-.111.369.369,0,0,1-.08-.278c.022-.275.067-.529.067-.813,0-.3-.005-.6-.025-.9a7.187,7.187,0,0,0-.306-1.719c-.3-.933-.923-1.285-1.715-1.851-.644-.459-.582-.639-.093-1.228a2.1,2.1,0,0,0,.673-2.162A2.276,2.276,0,0,0,1607.3,673.15Z" transform="translate(-1601.964 -667.748)" fill="#212c55"/>
    </g>
    <g id="_ÎÓÈ_52" data-name="—ÎÓÈ_52" transform="translate(93.247 23.722)">
      <path id="Path_65865" data-name="Path 65865" d="M1626.5,745.746c1.807-1.473,6.676-4.108,7.348-5.563a3.383,3.383,0,0,0-.012-1.764l2.931,3.337c-1.835,2.785-3.169,6.142-5.621,8.4-1.433-1.6-2.519-3.178-4.658-4.144-1.845.379-2.75,1.951-3.235,3.569-.934-2.837.145-4.3.32-7.032A13.3,13.3,0,0,0,1626.5,745.746Z" transform="translate(-1622.877 -738.419)" fill="#bedfe4"/>
    </g>
    <g id="_ÎÓÈ_49" data-name="—ÎÓÈ_49" transform="translate(82.064 25.723)">
      <path id="Path_65866" data-name="Path 65866" d="M1591.852,759.617c-1.863.8-3.937,1-5.477,2.739-1.244,1.4-.916,3.786-.971,5.658a124.039,124.039,0,0,0,.167,14.075c.19,2.43,1.159,11.8,1.073,13.97-.147,3.729-1.12,7.985-1.58,12.83-.54,5.686-.321,13.34.323,15.3.05.153.324.646.709.687a1.765,1.765,0,0,0,1.17-.6,3.8,3.8,0,0,0,.72-1.523,107.123,107.123,0,0,0,4.386-33.572c-.04-1.369.123-6.36.052-7.557a84.361,84.361,0,0,1,.162-11.224,23.992,23.992,0,0,1,1.66-6.757c.449-1.321,1.62-3.113,2.005-4.45.183-.635.2-3.034.271-3.124A12.463,12.463,0,0,1,1591.852,759.617Z" transform="translate(-1584.759 -752.898)" fill="#0a3c5f"/>
      <path id="Path_65867" data-name="Path 65867" d="M1655.256,813.888c-3.734,2.881-9.536,4.525-14.251,4.617-2.682.053-4.771-.361-6.482-1.926-2.269-2.074-2.883-5.253-3.179-8.313-.859-8.908.189-12.945,0-23.367-.149-8.409,3.523-25.521,9.336-35.511.305-.524,1.823-2.54.65-4.149a40.974,40.974,0,0,1,4.006,3.608c3.221,1.3,7.793,3.111,11.375,4.991,2.5,1.789-4.721,17.527-4.829,20.444-.217,5.833-1.046,12.359.049,18.093.677,3.549,1.114,7.015,1.8,10.571.35,1.81.673,3.627.936,5.452q.2,1.411.356,2.828C1655.063,811.557,1655.477,813.717,1655.256,813.888Z" transform="translate(-1617.433 -745.24)" fill="#0a3c5f"/>
    </g>
    <g id="_ÎÓÈ_59" data-name="—ÎÓÈ_59" transform="translate(102.69 93.954)">
      <rect id="Rectangle_1555" data-name="Rectangle 1555" width="0.457" height="2.731" transform="translate(9.741 5.19) rotate(-7.068)" fill="#f28a11"/>
      <path id="Path_65868" data-name="Path 65868" d="M1700.538,979.707l-11.9,3.225c-.566.154-2.265.544-2.363-.128-.091-.622.607-1.534,2.044-1.99l10.862-2.94c.567-.154,1.75-.137,2.1.528C1701.558,978.92,1701.1,979.552,1700.538,979.707Z" transform="translate(-1677.113 -977.793)" fill="#ba6b0d"/>
      <path id="Path_65869" data-name="Path 65869" d="M1664.518,1036.865l-1.925-.254s-2.8.254-3.591-.925a15.442,15.442,0,0,1-.767-3.169l-3.176-19.936,3.338-.128Z" transform="translate(-1655.058 -1002.284)" fill="#ba6b0d"/>
      <path id="Path_65870" data-name="Path 65870" d="M1688.258,1010l-21.122,6.19a12.072,12.072,0,0,1-3.948.441c-1.125-.245-1.9-3.524-1.9-3.524l-4.043-19.943a3.724,3.724,0,0,0-.213-.7c-.124-.187-.64-.206-.64-.206l-.639-.035-.39-.022-.309-.017s-.03-.452.589-.642c.243-.074.7-.2.7-.2l.137-.036,28.723-7.591a3.847,3.847,0,0,1,.583-.126c.126,0,.418.033.418.033l.626.08a1.347,1.347,0,0,1,.155.035.3.3,0,0,1,.215.151,1.576,1.576,0,0,1,.091.31l4.189,19.459a13.879,13.879,0,0,1,.214,4.409C1691.387,1009.352,1688.258,1010,1688.258,1010Z" transform="translate(-1655.058 -981.887)" fill="#f28a11"/>
      <path id="Path_65871" data-name="Path 65871" d="M1692.7,995.5l-.447.1-.521-2.412s-.069-.265.157-.313.29.217.29.217Z" transform="translate(-1680.967 -988.445)" fill="#f28a11"/>
      <path id="Path_65872" data-name="Path 65872" d="M1734.728,983.282l-.438.128-.691-2.37s-.108-.327.111-.395c.26-.08.328.267.328.267Z" transform="translate(-1710.536 -979.8)" fill="#f28a11"/>
      <rect id="Rectangle_1556" data-name="Rectangle 1556" width="0.457" height="2.731" transform="matrix(0.981, -0.193, 0.193, 0.981, 22.104, 1.879)" fill="#f28a11"/>
      <path id="Path_65873" data-name="Path 65873" d="M1657.25,993.166l2.2,10.871,5.04,3.217a2.641,2.641,0,0,0,2.159.31l17.736-5.165a5.282,5.282,0,0,0,3.32-2.862l1.968-4.275-2.383-11.067a1.576,1.576,0,0,0-.091-.31.3.3,0,0,0-.215-.151,1.347,1.347,0,0,0-.155-.035l-.626-.08s-.292-.036-.418-.033a3.847,3.847,0,0,0-.583.126l-28.723,7.591-.137.036s-.456.128-.7.2c-.619.189-.589.642-.589.642l.309.017.39.022.639.035s.516.019.64.206A3.724,3.724,0,0,1,1657.25,993.166Z" transform="translate(-1655.058 -981.887)" fill="#f79a0f"/>
      <path id="Path_65874" data-name="Path 65874" d="M1722.878,1046.883l-4.374,1.281a.456.456,0,0,1-.6-.316l-.754-3.662a.548.548,0,0,1,.411-.605l4.361-1.238a.455.455,0,0,1,.594.315l.766,3.619A.545.545,0,0,1,1722.878,1046.883Z" transform="translate(-1698.924 -1023.389)" fill="#ffd22c"/>
    </g>
    <g id="_ÎÓÈ_58" data-name="—ÎÓÈ_58" transform="translate(114.242 90.57)">
      <path id="Path_65875" data-name="Path 65875" d="M1705.658,970.741a3.139,3.139,0,0,1-.661,2.121c-.413.355-.762.164-1.119.364a2.125,2.125,0,0,1-1.169.34,2.09,2.09,0,0,0-.609.027,3.809,3.809,0,0,0-.778.38c-.753.327-.948.025-1.5.219a4.058,4.058,0,0,1-.86.31,1.583,1.583,0,0,1-.518-.012.919.919,0,0,1-.751-.606c-.1-.286-.067-.6-.167-.888a1.258,1.258,0,0,0-.4-.587,1.333,1.333,0,0,0-.875-.244,6.329,6.329,0,0,0-1.06.218c-.058.012-.643.163-.7.172a8.135,8.135,0,0,1,.436-3.5c.316-.649,1.115-1.787,1.232-2.22.078-.294.238-.355.49-.476a1.677,1.677,0,0,1,.9-.072,43.493,43.493,0,0,0,4.747.365,12.636,12.636,0,0,0,2.633-.238c.311-.064.362-.116.524.184a3.154,3.154,0,0,1,.043,1.2C1705.419,968.858,1705.737,969.684,1705.658,970.741Z" transform="translate(-1694.435 -966.259)" fill="#f4a086"/>
    </g>
    <g id="_ÎÓÈ_50" data-name="—ÎÓÈ_50" transform="translate(114.011 34.057)">
      <path id="Path_65876" data-name="Path 65876" d="M1693.656,791.458a31.307,31.307,0,0,1,2.641-13.9,14.164,14.164,0,0,1,1.547-2.7,3.067,3.067,0,0,1,1.941-1.208,1.934,1.934,0,0,1,1.817.862,109.629,109.629,0,0,1,2.568,10.892c.752,4.3,1.331,8.684,2.151,12.958,2.348,12.225.147,21.418-1.37,33.552-.819-.146-9.281-1.45-9.29-1.279.88-2.787,1.482-11.163,1.5-13.432C1697.231,808.284,1693.873,800.376,1693.656,791.458Z" transform="translate(-1693.645 -773.646)" fill="#0b456e"/>
    </g>
  </g>
</svg>
