<svg id="Group_21367" data-name="Group 21367" xmlns="http://www.w3.org/2000/svg" width="260.011" height="199.61" viewBox="0 0 260.011 199.61">
  <g id="Group_21294" data-name="Group 21294" transform="translate(173.213 53.849)">
    <path id="Path_66135" data-name="Path 66135" d="M671.1,152.06a122.827,122.827,0,0,1-51.636,55.027,122.822,122.822,0,0,1,9.272-74.889c3.654-7.793,18.611-37.6,51.636-55.027A122.832,122.832,0,0,1,671.1,152.06Z" transform="translate(-617.279 -77.172)" fill="#05a091"/>
    <path id="Path_66136" data-name="Path 66136" d="M629.355,182.965,618.629,205.8c.084.455.166.892.242,1.288.314-.173.653-.362,1.007-.56l4.831-10.284,18.792-7.093q1.307-1.223,2.626-2.531l-20.54,7.752,13.678-29.118L669.854,153.4c.216-.448.44-.887.652-1.343.087-.184.165-.367.249-.552l-30.6,11.857,15.417-32.818,25.051-12.077c.087-.575.166-1.147.242-1.714l-24.322,11.726,23.485-49.993c-.085-.467-.169-.913-.246-1.317-.332.174-.65.359-.977.536l-16.571,35.275-3.177-21.61q-.652.562-1.291,1.13l3.357,22.844-15.1,32.145-8.441-31.825c-.367.542-.72,1.075-1.066,1.6l8.522,32.132.1-.027-14.792,31.488-7.937-33.989q-.441,1.385-.839,2.753Z" transform="translate(-616.685 -77.172)" fill="#fff"/>
  </g>
  <g id="Group_21295" data-name="Group 21295" transform="translate(173.214 138.972)">
    <path id="Path_66137" data-name="Path 66137" d="M669.259,181.9a88.911,88.911,0,0,1-51.979,14.613,90.416,90.416,0,0,1,33.584-44.248c5.207-3.61,25.748-17.058,53.214-15.943A89.187,89.187,0,0,1,669.259,181.9Z" transform="translate(-617.28 -136.257)" fill="#05beac" opacity="0.58"/>
    <path id="Path_66138" data-name="Path 66138" d="M645.744,177.752l24.208,3.665c.583-.4,1.162-.792,1.727-1.2l-24.228-3.668,29.893-20.971,16.729,1.259q.454-.691.888-1.377L679.2,154.279l24.644-17.288c.082-.239.159-.465.229-.676-.576-.025-1.144-.032-1.715-.042l-10.7,7.507,2.851-7.277c-.539.043-1.072.094-1.6.147l-3.38,8.628-29.1,20.41,5.864-21.989c-.578.252-1.144.506-1.694.759l-5.973,22.4.1.026-28.48,19.979,6.8-22.743c-.769.811-1.517,1.624-2.233,2.436l-6.47,21.641-10.808,7.584c-.091.255-.176.5-.253.723,1.1.04,2.51.069,4.161.048l-2.034-.326Z" transform="translate(-617.28 -136.249)" fill="#fff"/>
  </g>
  <g id="Group_21296" data-name="Group 21296" transform="translate(11.801 149.886)">
    <path id="Path_66139" data-name="Path 66139" d="M547.058,165.134c-.582-1.335-1.513-1.359-2.38-.359a3.642,3.642,0,0,0-.651,2.433,8.977,8.977,0,0,0,.688,4.035c-.282-.447-.578-.883-.889-1.3-.547-.739-1.167-1.48-1.808-2.2-.923-4.269,2.38-4.828,2.183-7.033a1.585,1.585,0,0,0-.289-.821,2.093,2.093,0,0,0-2.109-.638c-1.18.294-1.673,1.645-1.836,2.092a6.046,6.046,0,0,0,.882,5.149c-1.116-1.158-2.2-2.184-3.025-2.94-.412-2.32.035-3.593.559-4.329a5.2,5.2,0,0,0,1.02-1.964c.264-1.082.071-1.835-.874-2.3a2.4,2.4,0,0,0-2.136.009c-1.245.736-.932,3.106-.716,4.76a6.328,6.328,0,0,0,.9,2.7c-1.435-1.281-2.711-2.334-4.133-3.726.213-1.289.951-6,.543-7.415a2.366,2.366,0,0,0-2.461-1.707c-.844.275-1.024,1.647-1.108,2.286a7.811,7.811,0,0,0,1.446,5.2c-.128-.14-.251-.268-.383-.416a36.993,36.993,0,0,1-2.961-3.693c-.134-2.013-.758-8.561-3.324-9.085a2.239,2.239,0,0,0-2.067.692c-.847,1.078.066,3.017.484,3.9a11.163,11.163,0,0,0,4.543,4.767,32.493,32.493,0,0,0,4.158,4.975c-3.962-.988-4.648-3.719-6.182-3.6a2.116,2.116,0,0,0-1.823,1.769c-.111,1.39,2.021,2.413,2.543,2.664a8.406,8.406,0,0,0,6.353.037c1.241,1.177,2.52,2.3,3.8,3.416a5.6,5.6,0,0,0-3.288-.352c-1.187.219-3.255.85-3.354,2.06a1.72,1.72,0,0,0,1.033,1.6c.84.346,1.694-.268,2.817-.789a12.982,12.982,0,0,1,4.375-1.114c1.036.935,2.053,1.9,3.024,2.913a4.519,4.519,0,0,0-2.283-.29c-1.083.088-4.367.35-4.809,2a1.446,1.446,0,0,0,.3,1.372c.494.462,1.386.213,2.628-.15,1.791-.522,2.781-1.34,5.313-1.674a26.135,26.135,0,0,1,4.02,6.087c-1.615-1.785-4.377-2.014-5.555-1.115-.115.089-1.083.828-.882,1.743a1.662,1.662,0,0,0,1.311,1.155c1.4.277,2.144-1.739,5.558-.8a28.932,28.932,0,0,1,2.03,8.33.223.223,0,0,0,.444-.045,28.6,28.6,0,0,0-3.1-10.7,23.232,23.232,0,0,1,1.215-4.465A4.675,4.675,0,0,0,547.058,165.134Z" transform="translate(-497.951 -143.832)" fill="#cefea1"/>
    <path id="Path_66140" data-name="Path 66140" d="M552.141,185.253a32.668,32.668,0,0,0-8.6-9.36,26.645,26.645,0,0,1-1.026-5.181,5.331,5.331,0,0,0-1.321-3.329c-1.274-1.069-2.237-.62-2.615.843a4.157,4.157,0,0,0,.568,2.817,10.233,10.233,0,0,0,2.755,3.775c-.517-.311-1.039-.608-1.572-.88-.934-.478-1.944-.921-2.964-1.327-3.11-3.894-.019-6.143-1.339-8.3a1.823,1.823,0,0,0-.713-.693,2.392,2.392,0,0,0-2.479.419c-1.057.9-.874,2.531-.814,3.069a6.9,6.9,0,0,0,3.514,4.816c-1.728-.617-3.36-1.114-4.584-1.469-1.6-2.163-1.789-3.69-1.627-4.708a5.948,5.948,0,0,0,.046-2.526c-.28-1.239-.86-1.912-2.062-1.909a2.743,2.743,0,0,0-2.18,1.092c-.9,1.386.624,3.649,1.683,5.23a7.239,7.239,0,0,0,2.3,2.3c-2.118-.579-3.958-1.01-6.116-1.71-.457-1.485-2.084-6.624-3.21-7.855-.908-.991-2.7-1.164-3.381-.5-.725.71-.212,2.2.027,2.9a8.9,8.9,0,0,0,4.119,4.58c-.2-.078-.393-.147-.6-.23a42.4,42.4,0,0,1-4.9-2.271c-1.158-1.99-5.12-8.365-8.007-7.6a2.558,2.558,0,0,0-1.763,1.756c-.318,1.531,1.6,3.05,2.476,3.744a12.748,12.748,0,0,0,7.062,2.566,36.948,36.948,0,0,0,6.776,2.974c-4.551,1-6.637-1.441-8.147-.542a2.413,2.413,0,0,0-.965,2.732c.592,1.48,3.291,1.441,3.952,1.432a9.588,9.588,0,0,0,6.513-3.187c1.823.56,3.655,1.044,5.483,1.53a6.507,6.507,0,0,0-3.41,1.346c-1.1.827-2.894,2.521-2.382,3.809a1.965,1.965,0,0,0,1.867,1.106c1.034-.072,1.6-1.132,2.478-2.234a14.755,14.755,0,0,1,3.907-3.36c1.511.422,3.017.882,4.506,1.418a5.314,5.314,0,0,0-2.419.887c-1.062.64-4.285,2.575-3.9,4.485a1.654,1.654,0,0,0,1,1.251c.739.222,1.524-.485,2.611-1.487,1.566-1.442,2.162-2.781,4.58-4.409a29.808,29.808,0,0,1,7.2,4.182c-2.557-1.007-5.5.161-6.244,1.678-.073.15-.687,1.4-.016,2.23a1.9,1.9,0,0,0,1.926.516c1.575-.429,1.284-2.88,5.264-3.646a33.078,33.078,0,0,1,6.316,7.494A.254.254,0,0,0,552.141,185.253Z" transform="translate(-505.242 -137.947)" fill="#cefea1"/>
    <path id="Path_66141" data-name="Path 66141" d="M596.234,185.33h-81.1c1.843-2.832,4.942-6.568,9.781-8.285,5.709-2.027,8.022.821,13.312-1.4,5.24-2.2,4.342-5.564,12.139-10.145a18.967,18.967,0,0,1,8.273-2.943,17.245,17.245,0,0,1,6.708.762c5.459,1.768,5.62,4.976,10.176,7.509,6.443,3.58,10.611-.419,15.389,2.959C593.088,175.33,595.521,178.429,596.234,185.33Z" transform="translate(-500.884 -135.607)" fill="#898989"/>
  </g>
  <g id="Group_21301" data-name="Group 21301" transform="translate(74.253)">
    <rect id="Rectangle_6380" data-name="Rectangle 6380" width="113.747" height="199.61" rx="6.938" fill="#464646"/>
    <path id="Path_66142" data-name="Path 66142" d="M656.122,52.537V218.286a5.458,5.458,0,0,1-4.711,5.446,4.276,4.276,0,0,1-.605.043H557.219a5.436,5.436,0,0,1-5.329-5.489V52.537a5.426,5.426,0,0,1,5.326-5.48h93.592A5.426,5.426,0,0,1,656.122,52.537Z" transform="translate(-547.135 -36.594)" fill="#fff"/>
    <path id="Path_66143" data-name="Path 66143" d="M656.122,52.537v2.276H551.89V52.537a5.42,5.42,0,0,1,5.326-5.48h93.592A5.416,5.416,0,0,1,656.122,52.537Z" transform="translate(-547.135 -36.594)" fill="#3acce1"/>
    <g id="Group_21298" data-name="Group 21298" transform="translate(84.863 12.087)">
      <g id="Group_21297" data-name="Group 21297">
        <rect id="Rectangle_6381" data-name="Rectangle 6381" width="1.429" height="1.906" transform="translate(0 3.012)" fill="#fff"/>
        <rect id="Rectangle_6382" data-name="Rectangle 6382" width="1.429" height="2.869" transform="translate(2.351 2.049)" fill="#fff"/>
        <rect id="Rectangle_6383" data-name="Rectangle 6383" width="1.429" height="3.894" transform="translate(4.703 1.025)" fill="#fff"/>
        <rect id="Rectangle_6384" data-name="Rectangle 6384" width="1.429" height="4.918" transform="translate(7.054)" fill="#fff"/>
      </g>
      <path id="Path_66144" data-name="Path 66144" d="M616.946,48.783v.728h-1.161v1.738h1.161v.728h6.743V48.783Z" transform="translate(-603.841 -47.921)" fill="#fff"/>
    </g>
    <g id="Group_21300" data-name="Group 21300" transform="translate(34.245 3.203)">
      <g id="Group_21299" data-name="Group 21299">
        <path id="Path_66145" data-name="Path 66145" d="M608.165,44.808H577.92a1.151,1.151,0,0,1,0-2.3h30.245a1.151,1.151,0,0,1,0,2.3Z" transform="translate(-570.417 -41.803)" fill="#fff"/>
        <path id="Path_66146" data-name="Path 66146" d="M576.07,43.872a1.855,1.855,0,1,1-1.854-1.854A1.855,1.855,0,0,1,576.07,43.872Z" transform="translate(-572.36 -42.018)" fill="#fff"/>
        <path id="Path_66147" data-name="Path 66147" d="M604.9,43.872a1.854,1.854,0,1,1-1.854-1.854A1.854,1.854,0,0,1,604.9,43.872Z" transform="translate(-559.653 -42.018)" fill="#fff"/>
      </g>
      <rect id="Rectangle_6385" data-name="Rectangle 6385" width="24.775" height="6.473" rx="2.206" transform="translate(10.241 186.908)" fill="#fff"/>
    </g>
  </g>
  <g id="Group_21303" data-name="Group 21303" transform="translate(5.192 54.418)">
    <path id="Path_66148" data-name="Path 66148" d="M581.693,77.567H507.054a6.417,6.417,0,0,0-6.4,6.4v17.974a6.419,6.419,0,0,0,6.4,6.4h3.468v6.127a1.347,1.347,0,0,0,2.3.952l7.08-7.08h61.792a6.419,6.419,0,0,0,6.4-6.4V83.965A6.417,6.417,0,0,0,581.693,77.567Z" transform="translate(-500.654 -77.567)" fill="#233053"/>
    <g id="Group_21302" data-name="Group 21302" transform="translate(11.439 8.426)">
      <rect id="Rectangle_6386" data-name="Rectangle 6386" width="64.559" height="1.441" fill="#fff"/>
      <rect id="Rectangle_6387" data-name="Rectangle 6387" width="64.559" height="1.441" transform="translate(0 6.238)" fill="#fff"/>
      <rect id="Rectangle_6388" data-name="Rectangle 6388" width="33.662" height="1.441" transform="translate(0 12.477)" fill="#fff"/>
    </g>
  </g>
  <g id="Group_21305" data-name="Group 21305" transform="translate(0 38.378)">
    <path id="Path_66149" data-name="Path 66149" d="M532.731,128.775q-3.587,3.782-7.16,7.564a10.065,10.065,0,0,0-5.388-2.737c-1.224-.158-1.57.072-4.927,0a23.334,23.334,0,0,1-5.619-.461c-2-.547-3.227-1.556-5.6-3.544-2.723-2.291-7.794-7.074-6.872-8.587a1.892,1.892,0,0,1,1.268-.692,2.335,2.335,0,0,1,1.542.432c3.458,2.19,7.189,4.408,7.952,4.841,4.682,2.593,10.892.605,10.993-.346.043-.432-1.153-1.081-3.544-2.406-1.037-.562-1.916-.98-2.291-1.945a1.72,1.72,0,0,1,0-1.484c.36-.519,1.253-.576,2.636-.346a20.153,20.153,0,0,1,6.641,2.521c2.809,1.5,4.221,2.262,4.668,2.55A34.294,34.294,0,0,1,532.731,128.775Z" transform="translate(-497.05 -43.296)" fill="#fcc36c"/>
    <path id="Path_66150" data-name="Path 66150" d="M677.239,185.53a66.374,66.374,0,0,1-8.1,12.764l-21.063.043c1.93-2.824,4.337-6.382,7.074-10.546,4.092-6.238,9-14.148,8.025-20.04-.029-.2-.072-.36-.1-.49-.5-2.017-2.132-4.106-5.4-8.284a87.88,87.88,0,0,0-9.076-9.955q-.281,24.657-.548,49.315H589.53q.3-25.911.62-51.807A65.226,65.226,0,0,1,576.2,161.571c-3.458,2.708-5.561,4.351-8.587,5.561-12.03,4.812-25.327-2.536-31.421-5.849a60.388,60.388,0,0,1-20-17.72l8.615-9.091a70.078,70.078,0,0,0,16.654,9.7c7.333,3,14.1,5.763,19.738,2.838a17.553,17.553,0,0,0,6.411-6.181c8.284-11.8,19.982-24,30.269-30.1a47.1,47.1,0,0,1,8.759-4.048,51.707,51.707,0,0,1,6.959-1.9q7.477.324,14.969.663c2.521.908,5.028,1.815,7.549,2.723a146.452,146.452,0,0,1,35.729,33.251,142.554,142.554,0,0,1,9.854,14.724s.23.706.432,1.426C685.321,168.919,680.077,179.637,677.239,185.53Z" transform="translate(-488.612 -49.535)" fill="#05beac"/>
    <path id="Path_66151" data-name="Path 66151" d="M593.162,116.685q.368,32.8.749,65.638c-2.017,2.147-4.048,4.293-6.065,6.44-1.931-2.233-3.846-4.466-5.777-6.7l6.137-65.609c-.72-1.484-1.426-2.968-2.118-4.437q2.658-2.528,5.3-5.028c1.412,1.83,2.809,3.659,4.221,5.5C594.79,113.89,593.969,115.287,593.162,116.685Z" transform="translate(-459.583 -48.561)" fill="#fffce5"/>
    <path id="Path_66152" data-name="Path 66152" d="M608.455,108.165l-8.73,8.9c-.922-1.2-5.561-7.275-6.973-9.105-1.758,1.671-7.766,7.376-9,8.543q-2.377-4.927-4.769-9.825a51.708,51.708,0,0,1,6.958-1.9q7.477.324,14.969.663C603.427,106.349,605.934,107.257,608.455,108.165Z" transform="translate(-460.945 -49.535)" fill="#fff"/>
    <path id="Path_66153" data-name="Path 66153" d="M601.974,112.333c-.173,1.138-.339,2.795-.6,5.532a14.186,14.186,0,0,1-15.113-.764c.259-2.377.533-4.74.792-7.117a7.783,7.783,0,0,1-2.953-.562s-2.925-1.21-4.942-5.417c-2.075-4.336-1.657-14.652,1.988-27.416,4.25,2.017,10.6,2.449,10.6,2.449,9.393.663,9.8.735,10.2,1.268,1.945,2.55-.043,6.325-2.089,13.773-.375,1.383-.893,3.429-1.4,5.95-.187.591-2.29,7.578,1.34,11.064A4.079,4.079,0,0,0,601.974,112.333Z" transform="translate(-461.415 -61.958)" fill="#fcc36c"/>
    <path id="Path_66154" data-name="Path 66154" d="M613.6,100.744a32.91,32.91,0,0,1-3.011,8c-1.152,2.1-4.7,8.572-8.363,8.068a4.079,4.079,0,0,1-2.168-1.239c-3.631-3.486-1.527-10.474-1.34-11.064.5-2.521,1.023-4.567,1.4-5.95,2.046-7.448,4.034-11.223,2.089-13.773-.4-.533-.807-.605-10.2-1.268,0,0-6.354-.432-10.546-2.435a6.755,6.755,0,0,1-2.809-2.377c-2.334-3.559-1.4-9.566,1.772-11.713.821-.547,1.858-.893,7.78-.043,3.083.432,5.691.936,7.866,1.455,1.856.448,3.368.9,4.666,1.328a23.959,23.959,0,0,1,6.182,2.979,15.964,15.964,0,0,1,2.146,1.6C617.862,82.865,614.232,98.353,613.6,100.744Z" transform="translate(-461.665 -66.433)" fill="#2f2334"/>
    <g id="Group_21304" data-name="Group 21304" transform="translate(123.761 1.962)">
      <path id="Path_66155" data-name="Path 66155" d="M600.515,95.861l-1.691-.63c.7-1.907,3.942-11.933-1.693-20.753a21.544,21.544,0,0,0-6.764-6.662,6.935,6.935,0,0,1,4.626,1.312,22.387,22.387,0,0,1,3.668,4.377C604.728,83.046,601.271,93.809,600.515,95.861Z" transform="translate(-579.687 -67.795)" fill="#4f7ee7"/>
      <path id="Path_66156" data-name="Path 66156" d="M603.294,84.079c-3.236-.83-6.777,2.069-7.909,6.477-.971,3.786.159,7.438,2.544,8.924-.686,1.236-.963,1.57-1.373,1.831-.35.22-1.073.687-5.381.114-.765-.1-1.536-.233-2.3-.37a1.291,1.291,0,0,0-1.048-1.173l-3.337-.592a1.3,1.3,0,0,0-.457,2.567l3.338.592a1.3,1.3,0,0,0,1.269-.522c.808.146,1.616.284,2.419.389a27.153,27.153,0,0,0,3.469.281,4.246,4.246,0,0,0,2.513-.527,5.217,5.217,0,0,0,1.71-2.211,4.075,4.075,0,0,0,.448.183c3.236.831,6.777-2.069,7.908-6.476S606.529,84.911,603.294,84.079Z" transform="translate(-582.954 -60.682)" fill="#4f7ee7"/>
    </g>
  </g>
</svg>
