<svg xmlns="http://www.w3.org/2000/svg" xmlns:xlink="http://www.w3.org/1999/xlink" width="120.039" height="175.105" viewBox="0 0 120.039 175.105">
  <defs>
    <linearGradient id="linear-gradient" x1="0.5" y1="1" x2="0.5" gradientUnits="objectBoundingBox">
      <stop offset="0" stop-color="#d1d1d1"/>
      <stop offset="1" stop-color="#fff"/>
    </linearGradient>
    <linearGradient id="linear-gradient-2" y1="0" y2="1" xlink:href="#linear-gradient"/>
    <linearGradient id="linear-gradient-3" x1="0.5" x2="0.5" y2="1" gradientUnits="objectBoundingBox">
      <stop offset="0" stop-color="#25c8b8"/>
      <stop offset="1" stop-color="#58d9cd"/>
    </linearGradient>
  </defs>
  <g id="Group_21168" data-name="Group 21168" transform="translate(0 0)">
    <g id="Group_21088" data-name="Group 21088">
      <g id="Group_21087" data-name="Group 21087">
        <path id="Path_65710" data-name="Path 65710" d="M-1346.48,620.693V744.328a10.368,10.368,0,0,1-4.689,8.131l-60.149,34.726c-2.593,1.5-4.7.28-4.7-2.713l0-123.634a10.381,10.381,0,0,1,4.695-8.133l60.148-34.726C-1348.578,616.482-1346.48,617.7-1346.48,620.693Z" transform="translate(1416.014 -617.339)" fill="#00beac"/>
        <path id="Path_65711" data-name="Path 65711" d="M-1395.392,665.595c6.886,4.669,13.809,9.285,20.725,13.911,9.365,6.267,18.73,12.552,27.944,19.044V620.693c0-2.994-2.1-4.211-4.691-2.714l-60.149,34.726a7.3,7.3,0,0,0-1,.707C-1407.062,657.768-1401.2,661.654-1395.392,665.595Z" transform="translate(1416.257 -617.339)" fill="#00beac"/>
        <path id="Path_65712" data-name="Path 65712" d="M-1406.945,781.4l-7.556-4.488,3.778-7.895s9.214,4.527,9.388,4.6S-1406.945,781.4-1406.945,781.4Z" transform="translate(1416.121 -606.624)" fill="#00beac"/>
        <path id="Path_65713" data-name="Path 65713" d="M-1344.129,622.246l-7.89-4.659-6.253,5,5.8,5.8Z" transform="translate(1420.093 -617.322)" fill="#00beac"/>
        <path id="Path_65714" data-name="Path 65714" d="M-1339.174,625.007V748.643a10.373,10.373,0,0,1-4.69,8.13l-60.148,34.726c-2.592,1.5-4.695.281-4.695-2.713l0-123.634a10.378,10.378,0,0,1,4.7-8.133l60.149-34.726C-1341.273,620.8-1339.174,622.014-1339.174,625.007Z" transform="translate(1416.53 -617.034)" fill="#49d6c9"/>
        <path id="Path_65715" data-name="Path 65715" d="M-1346.963,745.1l-54.919,31.707V663.088l54.919-31.707Z" transform="translate(1417.012 -616.347)"/>
        <path id="Path_65716" data-name="Path 65716" d="M-1347.514,741.954V632.361l-53.887,31.1v47.38Z" transform="translate(1417.045 -616.278)" fill="url(#linear-gradient)"/>
        <path id="Path_65717" data-name="Path 65717" d="M-1347.512,735.825v3.617l-53.887,31.114V704.721Z" transform="translate(1417.046 -611.166)" fill="url(#linear-gradient-2)"/>
      </g>
    </g>
    <g id="Group_21093" data-name="Group 21093" transform="translate(69.535 15.74)">
      <g id="Group_21092" data-name="Group 21092">
        <g id="Group_21091" data-name="Group 21091">
          <g id="Group_21090" data-name="Group 21090">
            <g id="Group_21089" data-name="Group 21089">
              <path id="Path_65725" data-name="Path 65725" d="M-1306.6,701.928v49L-1347.1,738.4V689.417Z" transform="translate(1351.347 -627.987)" fill="#fff"/>
              <path id="Path_65726" data-name="Path 65726" d="M-1306.581,652.2v50.524l-40.747-13.049V639.153Z" transform="translate(1351.331 -631.538)" fill="#fff"/>
              <path id="Path_65727" data-name="Path 65727" d="M-1313.074,654.773v41.395l-28.353-8.772V646Z" transform="translate(1351.748 -631.054)" fill="url(#linear-gradient-3)"/>
              <path id="Path_65728" data-name="Path 65728" d="M-1313.729,704v41.393l-28.355-8.771V695.225Z" transform="translate(1351.702 -627.577)" fill="url(#linear-gradient-3)"/>
              <path id="Path_65729" data-name="Path 65729" d="M-1350.2,634.139v.015l-.846-.247v-.02Z" transform="translate(1351.068 -631.91)" fill="#ffe5e5"/>
              <path id="Path_65730" data-name="Path 65730" d="M-1348.758,632.04l-2.309,1.966.021.01.425.5,44.3,17.533,1.229,55.181,2.144,53.589,2.38-1.792V646.953Z" transform="translate(1351.067 -632.04)" fill="url(#linear-gradient-2)"/>
              <path id="Path_65731" data-name="Path 65731" d="M-1307.242,647.436l-.849-.273-42.955-13.255v-.021l-.021-.01V743.79l.021.009v2l48.1,14.895V648.775Zm-38.658,73.671V695.765l.853.27,36.956,11.413v45.7l-36.956-11.436-.853-.268-.015-.014Zm37.81-20.587v.989l-36.956-11.437-.853-.264v-5.452l.018-42.936.835.272,36.956,11.434Z" transform="translate(1351.067 -631.911)" fill="#c3c3c3"/>
            </g>
          </g>
        </g>
        <path id="Path_65732" data-name="Path 65732" d="M-1312.026,700.1a2.392,2.392,0,0,1-2.39,2.393,2.392,2.392,0,0,1-2.387-2.393,2.389,2.389,0,0,1,2.387-2.384A2.389,2.389,0,0,1-1312.026,700.1Z" transform="translate(1353.487 -627.401)" fill="#212121"/>
      </g>
      <path id="Path_65733" data-name="Path 65733" d="M-1313.262,699.315a1.14,1.14,0,0,1-1.208,1.051,1.141,1.141,0,0,1-1.212-1.051,1.142,1.142,0,0,1,1.212-1.052A1.141,1.141,0,0,1-1313.262,699.315Z" transform="translate(1353.566 -627.362)" fill="#b2a593"/>
    </g>
    <g id="Group_21099" data-name="Group 21099" transform="translate(30.157 82.676)">
      <g id="Group_21098" data-name="Group 21098" transform="translate(0 0)">
        <path id="Path_65734" data-name="Path 65734" d="M-1371.352,747.532a7.721,7.721,0,0,0,2.506-.058c1.445-.316,2.13-1.138,1.7-2a3,3,0,0,0-1.068-.939,1.793,1.793,0,0,0-.3-.138l0,0c-.184-.068-.371-.138-.557-.2s-.354-.124-.533-.177c0,0-.008-.006-.015-.01a6.356,6.356,0,0,1-2.794-2.476,9.914,9.914,0,0,1-1.836-3.7l-3.53.45c.022.155-.465,3.9-.5,4.154v.016a2.811,2.811,0,0,0,1.965,2.533,11.062,11.062,0,0,1,3.005,1.39C-1372.6,746.882-1372.489,747.4-1371.352,747.532Z" transform="translate(1388.523 -691.504)" fill="#192226"/>
        <path id="Path_65735" data-name="Path 65735" d="M-1376.438,744.556a11.2,11.2,0,0,1,3.007,1.385c.611.442.776.888,1.548,1.088a3.53,3.53,0,0,0,.407.077,8.388,8.388,0,0,0,2.549.039c1.45-.32,2.089-1.238,1.662-2.092-.494-.995-.883-.63-2.484-1.821-.963-.716-5.079-4.393-5.382-5.734-2.485.32-2.771.353-2.771.353.022.156-.467,3.9-.5,4.156l0,.012A2.815,2.815,0,0,0-1376.438,744.556Z" transform="translate(1388.513 -691.527)" fill="#e0e0e0"/>
        <g id="Group_21094" data-name="Group 21094" transform="translate(15.044 50.399)">
          <path id="Path_65736" data-name="Path 65736" d="M-1373.638,743.188a.159.159,0,0,0,.08-.02l2.138-1.234a.16.16,0,0,0,.061-.217.159.159,0,0,0-.221-.059l-2.136,1.23a.161.161,0,0,0-.058.22A.152.152,0,0,0-1373.638,743.188Z" transform="translate(1373.796 -741.634)" fill="#212121"/>
        </g>
        <g id="Group_21095" data-name="Group 21095" transform="translate(15.713 50.957)">
          <path id="Path_65737" data-name="Path 65737" d="M-1373.011,743.708a.145.145,0,0,0,.081-.022l2.139-1.234a.159.159,0,0,0,.057-.217.156.156,0,0,0-.217-.057l-2.14,1.232a.163.163,0,0,0-.06.218A.163.163,0,0,0-1373.011,743.708Z" transform="translate(1373.171 -742.155)" fill="#212121"/>
        </g>
        <g id="Group_21096" data-name="Group 21096" transform="translate(16.314 51.479)">
          <path id="Path_65738" data-name="Path 65738" d="M-1372.448,744.195a.162.162,0,0,0,.08-.021l2.138-1.235a.159.159,0,0,0,.059-.216.16.16,0,0,0-.22-.057l-2.138,1.232a.16.16,0,0,0-.059.218A.162.162,0,0,0-1372.448,744.195Z" transform="translate(1372.609 -742.642)" fill="#212121"/>
        </g>
        <path id="Path_65739" data-name="Path 65739" d="M-1377.062,695.857a3.957,3.957,0,0,1,4.938,2.627,32.019,32.019,0,0,1,1.2,7.318,58.984,58.984,0,0,1-.086,6.868c-.12,2.3-.344,4.586-.481,6.879a6.481,6.481,0,0,1-.808,3.394c-.791,1.188-1.182,13.5-.956,18.368,0,.009,1.146,1.635,1.146,1.635.033.9-1.572,1.956-2.468,2.252-1.084.368-4.033.631-4.4-.459a32.815,32.815,0,0,1-.95-17.263,29.287,29.287,0,0,1,1.25-5.271c-.393-2.744-1.345-17.049-1.56-19.088l.483-1.885c-.043-.472-.088-.945-.107-1.422A3.953,3.953,0,0,1-1377.062,695.857Z" transform="translate(1388.356 -694.481)" fill="#104c66"/>
        <path id="Path_65740" data-name="Path 65740" d="M-1383.674,747.73" transform="translate(1388.142 -690.804)" fill="#f0f2f4"/>
        <path id="Path_65741" data-name="Path 65741" d="M-1387.847,749.057" transform="translate(1387.847 -690.71)" fill="#f0f2f4"/>
        <g id="Group_21097" data-name="Group 21097" transform="translate(2.853)">
          <path id="Path_65742" data-name="Path 65742" d="M-1385.182,698.871l11.865-4.311.544,2.618-5.907,5.954Z" transform="translate(1385.182 -694.56)" fill="#197084"/>
        </g>
      </g>
    </g>
    <path id="Path_65743" data-name="Path 65743" d="M-1387.924,749.757c3.166.67,5.361.074,4.9-1.338a3,3,0,0,0-.919-1.083,2.011,2.011,0,0,0-.275-.18h0c-.335-.186-.675-.372-1.019-.54l-.016-.009c-1.219-.6-1.915-1-3.213-.739-2.234.451-4.062-4.042-5.022-2.63a3.819,3.819,0,0,0-.114,1.369C-1393.048,745.994-1390.395,749.229-1387.924,749.757Z" transform="translate(1417.594 -608.465)" fill="#192226"/>
    <line id="Line_82" data-name="Line 82" x1="2.295" y2="0.907" transform="translate(28.255 135.838)" fill="#212121"/>
    <line id="Line_83" data-name="Line 83" x1="2.295" y2="0.905" transform="translate(28.837 136.487)" fill="#212121"/>
    <line id="Line_84" data-name="Line 84" y1="0.907" x2="2.295" transform="translate(29.473 137.387)" fill="#212121"/>
    <path id="Path_65744" data-name="Path 65744" d="M-1381.838,727.361c1.07-.685,1.145-2.363,1.36-3.475.458-2.4,1.012-4.782,1.452-7.183a58.886,58.886,0,0,0,1.008-7.227,31.745,31.745,0,0,0-.383-7.856c-.439-2.281-2.839-5.557-5.3-5.3-4.142.426-4.435,9.17-4.435,9.17-.024,2.174.6,16.656.675,19.595a1.547,1.547,0,0,1-.346.213l4.3,4.08C-1383.2,729.1-1382.2,727.595-1381.838,727.361Z" transform="translate(1417.984 -611.761)" fill="#197084"/>
    <path id="Path_65745" data-name="Path 65745" d="M-1382.975,748.3a3.027,3.027,0,0,0-.922-1.085,2.144,2.144,0,0,0-.274-.179v0c-.174-.093-.347-.191-.521-.285s-.333-.173-.5-.256l-.012-.011a6.327,6.327,0,0,1-2.4-2.857,9.927,9.927,0,0,1-1.276-3.929c-2.506-.049-3.557-.072-3.557-.072,0,.157-1.032,3.79-1.1,4.038l0,0,0,.011c-.336,1.205,2.612,5.311,5.67,5.958l.437.087" transform="translate(1417.599 -608.701)" fill="#f0f2f4"/>
    <path id="Path_65746" data-name="Path 65746" d="M-1387.847,749.151c2.928.528,4.9-.078,4.468-1.421" transform="translate(1418.004 -608.128)" fill="#f0f2f4"/>
    <path id="Path_65747" data-name="Path 65747" d="M-1380.911,724.107l-6.093-.563a12.715,12.715,0,0,0-2.419,3.288c-2.681,5.174-4.792,11.126-4.417,17.667.072,1.214,2.755,1.394,4.053,1.33,1.067-.058,2.92-.593,3.155-1.517,0,0-.742-1.169-.741-1.174,1.211-5.042,3.111-8.8,4.586-13.755A38.741,38.741,0,0,1-1380.911,724.107Z" transform="translate(1417.577 -609.837)" fill="#197084"/>
    <g id="Group_21100" data-name="Group 21100" transform="translate(28.154 135.828)">
      <path id="Path_65748" data-name="Path 65748" d="M-1389.616,745.123a.161.161,0,0,0-.091.207.162.162,0,0,0,.189.1l.017-.006,2.3-.9a.161.161,0,0,0,.089-.209.16.16,0,0,0-.207-.091" transform="translate(1389.718 -744.206)" fill="#212121"/>
    </g>
    <g id="Group_21101" data-name="Group 21101" transform="translate(28.736 136.475)">
      <path id="Path_65749" data-name="Path 65749" d="M-1389.073,745.728a.16.16,0,0,0-.09.209.162.162,0,0,0,.189.1.092.092,0,0,0,.019-.008l2.3-.907a.16.16,0,0,0,.09-.207.158.158,0,0,0-.208-.09" transform="translate(1389.174 -744.81)" fill="#212121"/>
    </g>
    <g id="Group_21102" data-name="Group 21102" transform="translate(29.254 137.078)">
      <path id="Path_65750" data-name="Path 65750" d="M-1386.175,745.683a.16.16,0,0,0,.089-.206.159.159,0,0,0-.208-.092l-2.3.907a.161.161,0,0,0-.088.21.161.161,0,0,0,.187.094c.007,0,.012-.005.02-.006" transform="translate(1388.69 -745.373)" fill="#212121"/>
    </g>
    <g id="Group_21103" data-name="Group 21103" transform="translate(41.072 59.725)">
      <path id="Path_65751" data-name="Path 65751" d="M-1377.643,673.6a11.335,11.335,0,0,0,.268,2.694,35.894,35.894,0,0,0,1.033,4.334,29.442,29.442,0,0,0,1.641,4.039c.482.974.88,2.028,1.321,3.036a8.171,8.171,0,0,0,1.628,2.82,12.96,12.96,0,0,0,3.237,2.422c1.361.626,2.833.965,4.233,1.486.3.117.6.235.883.375s.564.282.838.433a6.739,6.739,0,0,1,.8.516,8.1,8.1,0,0,1,.727.6,12.566,12.566,0,0,0,3.068,2.277,2.228,2.228,0,0,0,.445-.169,2.683,2.683,0,0,0,.278-.167,1.9,1.9,0,0,0,.417-.413,1.872,1.872,0,0,0,.229-.37,2.117,2.117,0,0,0,.167-.548.882.882,0,0,0,.021-.112,2.3,2.3,0,0,0-.019-.72c0-.019-.01-.048-.016-.069-.024-.114-.058-.226-.093-.343a2.387,2.387,0,0,0-.679-1c-.275-.169-1.817-.6-2-.7-.3-.165-.578-.358-.864-.533s-.549-.376-.8-.573-.528-.4-.778-.607-.5-.421-.734-.64c-.492-.427-.956-.89-1.421-1.329a12.877,12.877,0,0,0-3.906-2.288c-.939-.342-.9-.5-1.29-1.5a9.633,9.633,0,0,1-.42-1.564c-.765-3.785-.878-7.833-2.16-11.519C-1371.742,672.976-1377.615,673.007-1377.643,673.6Z" transform="translate(1377.652 -673.123)" fill="#f7996b"/>
    </g>
    <g id="Group_21104" data-name="Group 21104" transform="translate(40.784 57.04)">
      <path id="Path_65752" data-name="Path 65752" d="M-1377.761,677.258c.077.52.171,1.11.307,1.737a42.01,42.01,0,0,0,1.239,4.282,14.166,14.166,0,0,0,6.573-2.285c-.086-.42-.172-.839-.256-1.257a39.616,39.616,0,0,0-1.026-4.982,7.365,7.365,0,0,0-1.933-2.871c-.714-.535-2.381-1.414-3.326-1.247-.756.135-.366,1.149-.884,1.785a4.29,4.29,0,0,0-.6,1.064,5.334,5.334,0,0,0-.18.58,3.778,3.778,0,0,0-.071.6v.014s0,.109,0,.319,0,.509.027.894S-1377.828,676.731-1377.761,677.258Z" transform="translate(1377.921 -670.616)" fill="#c44220"/>
    </g>
    <g id="Group_21105" data-name="Group 21105" transform="translate(29.066 56.154)">
      <path id="Path_65753" data-name="Path 65753" d="M-1388.866,676.157l.651,2.1.241.776a42.578,42.578,0,0,1,1.429,8.749c.089.842.178,1.721.281,2.665.306,2.908-1.5,8.221-2.314,13.119-.9,3.232,5.267,3.121,7.377,3.233a17.782,17.782,0,0,0,4.729-.728c3.111-.919,6.555-1.528,6.2-4.3-.216-1.683-1.019-5.362-.969-6.752.063-1.76.28-3.378.51-5.1v-.038c0-2.061.5-4.169.559-6.245a26.391,26.391,0,0,0-.463-6.5,12.671,12.671,0,0,0-1.288-3.62c-1.813-3.324-3.7-3.2-6.436-3.679a4.612,4.612,0,0,0-2.281.2,20.166,20.166,0,0,0-6.805,4.223c-.177.153.289.123.124.275C-1387.833,675.047-1388.331,675.571-1388.866,676.157Z" transform="translate(1388.866 -669.788)" fill="#e94f1d"/>
    </g>
    <g id="Group_21106" data-name="Group 21106" transform="translate(36.024 48.394)">
      <path id="Path_65754" data-name="Path 65754" d="M-1382.3,664.354l-.064,7.314a2.44,2.44,0,0,0,2.493,2.372,2.446,2.446,0,0,0,2.533-2.334,2.512,2.512,0,0,0-.023-.334l-1.057-7.25a1.926,1.926,0,0,0-2.192-1.564A1.873,1.873,0,0,0-1382.3,664.354Z" transform="translate(1382.367 -662.54)" fill="#f7996b"/>
    </g>
    <g id="Group_21107" data-name="Group 21107" transform="translate(32.859 42.639)">
      <path id="Path_65755" data-name="Path 65755" d="M-1382.264,668.188c.515.448.446,1.588,1.575,2.563a9.356,9.356,0,0,0,3.319,1.792,2.041,2.041,0,0,0,2.438-.669,14.408,14.408,0,0,0,1.1-3.827c.005-.033.01-.069.015-.1a15.345,15.345,0,0,0,.115-3.779,22.182,22.182,0,0,0-.759-4.031c-1.719-3.052-3.912-3.481-7.627-2.5C-1386.338,658.747-1386.4,664.587-1382.264,668.188Z" transform="translate(1385.323 -657.165)" fill="#ffc197"/>
    </g>
    <g id="Group_21108" data-name="Group 21108" transform="translate(32.657 45.761)">
      <path id="Path_65756" data-name="Path 65756" d="M-1379.769,663.34c-.552.973-.948,2.2-1.433,3.273-.7.5-1.391,1.066-1.391,1.066-1.383-.771-1.8-1.813-2.424-3.408-.526-1.332-.7-3.34-.193-4.191Z" transform="translate(1385.511 -660.081)" fill="#263238"/>
    </g>
    <g id="Group_21110" data-name="Group 21110" transform="translate(33.679 50.308)">
      <g id="Group_21109" data-name="Group 21109" transform="translate(0 0)">
        <path id="Path_65757" data-name="Path 65757" d="M-1382.346,665.343c-1.124-1.946-2.28-.647-2.208.2a2.959,2.959,0,0,0,2.424,2.325c.141.013.2-1,.134-1.356A3.518,3.518,0,0,0-1382.346,665.343Z" transform="translate(1384.557 -664.328)" fill="#ffc197"/>
      </g>
    </g>
    <g id="Group_21111" data-name="Group 21111" transform="translate(36.73 48.203)">
      <path id="Path_65758" data-name="Path 65758" d="M-1381.707,662.362c.357.648,1.11.269,1.29,1.517a20.847,20.847,0,0,0,2.153,2.5,5.365,5.365,0,0,0,.991.659c.259.135.715.414,1.019.325.266-.077.218-.381.59-.395.465-.012.842.529,1.3.607a1.221,1.221,0,0,0,.3,0,15.368,15.368,0,0,0,.115-3.779,9.65,9.65,0,0,0-.918-.918Z" transform="translate(1381.707 -662.362)" fill="#f7996b"/>
    </g>
    <g id="Group_21112" data-name="Group 21112" transform="translate(32.948 41.859)">
      <path id="Path_65759" data-name="Path 65759" d="M-1377.322,656.833c.514.582,1.067,1.125,1.578,1.714.421.483.83.974,1.238,1.467.143.823.281,1.647.428,2.469a1.061,1.061,0,0,1-.136.1c-4.01,2.422-8.672,2.245-11-1.649C-1385.66,657.635-1380.967,655.513-1377.322,656.833Z" transform="translate(1385.24 -656.436)"/>
    </g>
    <g id="Group_21115" data-name="Group 21115" transform="translate(32.694 40.73)">
      <g id="Group_21113" data-name="Group 21113" transform="translate(0 0)">
        <path id="Path_65760" data-name="Path 65760" d="M-1379.335,664.56a11.459,11.459,0,0,0-1.108-.594c-2.034-.526-4.681-1.507-5.03-2.773a6.267,6.267,0,0,1,3.9-5.673,6.4,6.4,0,0,1,7.274,4.15,18.4,18.4,0,0,1,.482,3.932C-1374.734,664.944-1377.319,665.08-1379.335,664.56Z" transform="translate(1385.477 -655.382)" fill="#c44220"/>
      </g>
      <g id="Group_21114" data-name="Group 21114" transform="translate(5.034 7.082)">
        <path id="Path_65761" data-name="Path 65761" d="M-1370.275,663.2s-.247.477-.515.968c-.116-1.247-1.951-.519-3.511,1.156-1.46,1.559-4.326,1.349-6.474-1.826.4.092.838.168,1.3.253.033.011.042,0,.077.006,1.954.386,4.572-.115,5.231-1.76Z" transform="translate(1380.775 -661.997)" fill="#c44220"/>
      </g>
    </g>
    <g id="Group_21116" data-name="Group 21116" transform="translate(33.961 42.081)">
      <path id="Path_65762" data-name="Path 65762" d="M-1378.957,657.775c1.018.775,1.911,1.97,1.358,3.291-.811,1.934-3.214,2.106-4.9,1.281a3.631,3.631,0,0,1-1.662-3.954,2.68,2.68,0,0,1,2.179-1.7A3.8,3.8,0,0,1-1378.957,657.775Z" transform="translate(1384.294 -656.643)" fill="#e94f1d"/>
    </g>
    <g id="Group_21117" data-name="Group 21117" transform="translate(38.637 49.316)">
      <path id="Path_65763" data-name="Path 65763" d="M-1374.553,663.69a.778.778,0,0,0-.449.53,1.1,1.1,0,0,1,1.559-.035c-.875.535-1.508,1.349-2.541,1.623a3.9,3.9,0,0,1-3.188-1.027,1.846,1.846,0,0,1-.753-.829,6.679,6.679,0,0,0,3.171-.042,3.837,3.837,0,0,0,.914-.286,1.247,1.247,0,0,1,.663-.219C-1375.006,663.427-1374.724,663.745-1374.553,663.69Z" transform="translate(1379.926 -663.401)" fill="#e94f1d"/>
    </g>
    <g id="Group_21163" data-name="Group 21163" transform="translate(34.782 70.079)">
      <g id="Group_21156" data-name="Group 21156" transform="translate(0 0)">
        <g id="Group_21155" data-name="Group 21155">
          <g id="Group_21119" data-name="Group 21119">
            <g id="Group_21118" data-name="Group 21118">
              <path id="Path_65764" data-name="Path 65764" d="M-1361.178,687.539l-1.953-1.126-6.269-3.619-5.833,3.362-.962.557-.1.06-.885.511-6.347,3.662,5.731,3.311.574.332.1.06.928.536.924.535,6.177,3.566,6.308-3.643.924-.535.1-.06.931-.536,5.853-3.379.008-.007Z" transform="translate(1383.527 -682.794)" fill="#ffdda8"/>
            </g>
          </g>
          <g id="Group_21120" data-name="Group 21120" transform="translate(0.003 8.152)">
            <path id="Path_65765" data-name="Path 65765" d="M-1369.091,698.744v14.362l-6.171-3.535-.026-.015-1.932-1.1-.576-.331-5.728-3.282V690.408l6.3,3.641,1.958,1.13Z" transform="translate(1383.524 -690.408)" fill="#bc7c46"/>
          </g>
          <g id="Group_21122" data-name="Group 21122" transform="translate(14.435 8.336)">
            <g id="Group_21121" data-name="Group 21121">
              <path id="Path_65766" data-name="Path 65766" d="M-1361.785,693.96l-.951.55-.094.056-.91.523-6.3,3.642v14.362l6.3-3.614,1.955-1.123,5.859-3.363V690.58Z" transform="translate(1370.044 -690.58)" fill="#dda866"/>
            </g>
          </g>
          <g id="Group_21139" data-name="Group 21139" transform="translate(14.877 24.664)">
            <g id="Group_21133" data-name="Group 21133" transform="translate(0.347 0.803)">
              <g id="Group_21127" data-name="Group 21127" transform="translate(0 0.558)">
                <g id="Group_21124" data-name="Group 21124" transform="translate(0.346 0.093)">
                  <g id="Group_21123" data-name="Group 21123">
                    <path id="Path_65767" data-name="Path 65767" d="M-1368.888,708.87l-.1.057v-1.682l.1-.056Z" transform="translate(1368.985 -707.189)" fill="#4f2e16"/>
                  </g>
                </g>
                <g id="Group_21126" data-name="Group 21126">
                  <g id="Group_21125" data-name="Group 21125">
                    <path id="Path_65768" data-name="Path 65768" d="M-1368.52,707.365l-.069.117-.324-.217-.323.591-.071-.035.394-.719Z" transform="translate(1369.308 -707.102)" fill="#4f2e16"/>
                  </g>
                </g>
              </g>
              <g id="Group_21132" data-name="Group 21132" transform="translate(0.965)">
                <g id="Group_21129" data-name="Group 21129" transform="translate(0.347 0.093)">
                  <g id="Group_21128" data-name="Group 21128">
                    <path id="Path_65769" data-name="Path 65769" d="M-1367.985,708.348l-.1.058v-1.682l.1-.055Z" transform="translate(1368.083 -706.668)" fill="#4f2e16"/>
                  </g>
                </g>
                <g id="Group_21131" data-name="Group 21131">
                  <g id="Group_21130" data-name="Group 21130">
                    <path id="Path_65770" data-name="Path 65770" d="M-1367.616,706.843l-.072.118-.322-.216-.327.589-.072-.034.4-.72Z" transform="translate(1368.407 -706.581)" fill="#4f2e16"/>
                  </g>
                </g>
              </g>
            </g>
            <g id="Group_21135" data-name="Group 21135" transform="translate(0.274 2.301)">
              <g id="Group_21134" data-name="Group 21134">
                <path id="Path_65771" data-name="Path 65771" d="M-1367.523,708.1l-1.805,1.042c-.026.016-.048,0-.048-.028a.106.106,0,0,1,.048-.084l1.805-1.041c.026-.016.047,0,.047.028A.106.106,0,0,1-1367.523,708.1Z" transform="translate(1369.376 -707.98)" fill="#4f2e16"/>
              </g>
            </g>
            <g id="Group_21138" data-name="Group 21138">
              <g id="Group_21137" data-name="Group 21137">
                <g id="Group_21136" data-name="Group 21136">
                  <path id="Path_65772" data-name="Path 65772" d="M-1367.521,708.7l-1.773,1.026c-.187.107-.338.02-.338-.2v-2.046a.746.746,0,0,1,.338-.585l1.773-1.025c.185-.107.337-.021.337.2v2.048A.748.748,0,0,1-1367.521,708.7Zm-1.773-1.692a.534.534,0,0,0-.242.419v2.045c0,.156.108.218.242.141l1.773-1.024a.531.531,0,0,0,.24-.42l0-2.045c0-.154-.109-.218-.242-.14Z" transform="translate(1369.632 -705.831)" fill="#4f2e16"/>
                </g>
              </g>
            </g>
          </g>
          <g id="Group_21149" data-name="Group 21149" transform="translate(17.947 22.802)">
            <g id="Group_21142" data-name="Group 21142">
              <g id="Group_21141" data-name="Group 21141">
                <g id="Group_21140" data-name="Group 21140">
                  <path id="Path_65773" data-name="Path 65773" d="M-1364.592,707.047l-1.824,1.054c-.192.11-.348.02-.348-.2v-2.106a.772.772,0,0,1,.348-.6l1.824-1.052c.192-.11.345-.021.345.2v2.1A.766.766,0,0,1-1364.592,707.047Zm-1.824-1.74a.543.543,0,0,0-.249.43v2.107c0,.156.11.222.249.142l1.824-1.052a.559.559,0,0,0,.248-.43V704.4c0-.157-.115-.223-.248-.143Z" transform="translate(1366.764 -704.092)" fill="#4f2e16"/>
                </g>
              </g>
            </g>
            <g id="Group_21148" data-name="Group 21148" transform="translate(0.781 0.871)">
              <g id="Group_21144" data-name="Group 21144" transform="translate(0.427 0.408)">
                <g id="Group_21143" data-name="Group 21143">
                  <path id="Path_65774" data-name="Path 65774" d="M-1365.584,706.916c-.028.016-.052,0-.052-.029V705.38a.112.112,0,0,1,.052-.087c.027-.016.049,0,.049.028v1.51A.109.109,0,0,1-1365.584,706.916Z" transform="translate(1365.636 -705.287)" fill="#4f2e16"/>
                </g>
              </g>
              <g id="Group_21146" data-name="Group 21146" transform="translate(0.201 1.786)">
                <g id="Group_21145" data-name="Group 21145">
                  <path id="Path_65775" data-name="Path 65775" d="M-1365.345,706.7l-.451.26c-.028.016-.051,0-.051-.028a.11.11,0,0,1,.051-.087l.451-.26c.029-.016.05,0,.05.028A.11.11,0,0,1-1365.345,706.7Z" transform="translate(1365.847 -706.574)" fill="#4f2e16"/>
                </g>
              </g>
              <g id="Group_21147" data-name="Group 21147">
                <path id="Path_65776" data-name="Path 65776" d="M-1365.077,704.905v.7a.658.658,0,0,1-.3.517l-.366.21c-.165.1-.3.018-.3-.172v-.7l.18-.1v.754c0,.031.021.045.048.029a.115.115,0,0,0,.051-.087V705.3Z" transform="translate(1366.035 -704.905)" fill="#4f2e16"/>
              </g>
            </g>
          </g>
          <g id="Group_21151" data-name="Group 21151" transform="translate(0.383 0.217)">
            <g id="Group_21150" data-name="Group 21150">
              <path id="Path_65777" data-name="Path 65777" d="M-1369.428,683l-13.741,7.937,14.052,8.053,13.738-7.876Z" transform="translate(1383.169 -682.997)" fill="#f9c98a"/>
            </g>
          </g>
          <g id="Group_21152" data-name="Group 21152" transform="translate(14.435 8.481)">
            <path id="Path_65778" data-name="Path 65778" d="M-1355.927,690.715v.112l-14.118,8.15v-.112Z" transform="translate(1370.044 -690.715)" fill="#bc7c46"/>
          </g>
          <g id="Group_21153" data-name="Group 21153" transform="translate(7.234 3.921)">
            <path id="Path_65779" data-name="Path 65779" d="M-1362.239,694.791l-.1.057-14.435-8.334.1-.057Z" transform="translate(1376.771 -686.456)" fill="#bc7c46"/>
          </g>
          <g id="Group_21154" data-name="Group 21154" transform="translate(21.651 12.267)">
            <path id="Path_65780" data-name="Path 65780" d="M-1363.21,694.252v.232h-.1v-.177Z" transform="translate(1363.305 -694.252)" fill="#bc7c46"/>
          </g>
        </g>
        <path id="Path_65781" data-name="Path 65781" d="M-1362.2,693.727v14.408l-1.955,1.123v-14.4Z" transform="translate(1384.895 -682.022)" fill="#9b7451"/>
        <path id="Path_65782" data-name="Path 65782" d="M-1361.247,694.288l-.932.537-.1.059-.924.536-14.4-8.359.886-.511.1-.06.963-.556Z" transform="translate(1383.946 -682.572)" fill="#caaf8f"/>
        <path id="Path_65783" data-name="Path 65783" d="M-1375.679,694.929v14.4l-.026-.015-1.932-1.1V693.8Z" transform="translate(1383.943 -682.017)" fill="#9b7451"/>
        <path id="Path_65784" data-name="Path 65784" d="M-1361.594,687.3l-14.089,8.18-.925-.536-.1-.06-.83-.476-.1-.059,14.091-8.175Z" transform="translate(1383.943 -682.555)" fill="#caaf8f"/>
      </g>
      <g id="Group_21162" data-name="Group 21162" transform="translate(23.713 10.43)">
        <g id="Group_21157" data-name="Group 21157">
          <path id="Path_65785" data-name="Path 65785" d="M-1357.3,696.043l-4.079,2.354v-3.506l4.079-2.355Z" transform="translate(1361.379 -692.536)" fill="#e5e0dc"/>
        </g>
        <path id="Path_65786" data-name="Path 65786" d="M-1357.714,693.544l-3.3,1.908v-.393l3.3-1.906Z" transform="translate(1361.404 -692.492)" fill="#4f2e16"/>
        <g id="Group_21158" data-name="Group 21158" transform="translate(0.388 1.585)">
          <path id="Path_65787" data-name="Path 65787" d="M-1357.714,694.188l-3.3,1.907v-.172l3.3-1.907Z" transform="translate(1361.016 -694.016)" fill="#b2aeab"/>
        </g>
        <g id="Group_21159" data-name="Group 21159" transform="translate(0.388 2.045)">
          <path id="Path_65788" data-name="Path 65788" d="M-1357.714,694.62l-3.3,1.906v-.172l3.3-1.907Z" transform="translate(1361.016 -694.446)" fill="#b2aeab"/>
        </g>
        <g id="Group_21160" data-name="Group 21160" transform="translate(0.388 2.541)">
          <path id="Path_65789" data-name="Path 65789" d="M-1357.714,695.082l-3.3,1.907v-.173l3.3-1.906Z" transform="translate(1361.016 -694.91)" fill="#b2aeab"/>
        </g>
        <g id="Group_21161" data-name="Group 21161" transform="translate(0.388 3.001)">
          <path id="Path_65790" data-name="Path 65790" d="M-1357.714,695.513l-3.3,1.907v-.174l3.3-1.907Z" transform="translate(1361.016 -695.339)" fill="#b2aeab"/>
        </g>
      </g>
    </g>
    <g id="Group_21164" data-name="Group 21164" transform="translate(24.096 60.56)">
      <path id="Path_65791" data-name="Path 65791" d="M-1381.216,697.907c-2.945-1.99-5.3-6.49-7.019-7.181,0-.086,1.312-3.92,1.714-4.7.353-.678.667-1.336.963-1.973-2.086-.771-4.169-1.545-6.277-2.225-.39,1.849-1.729,8.672-1.67,9.367a3.933,3.933,0,0,0,.681,2.094c2.188,2.495,7.84,6.13,11.489,8.026.339-1.015,1.3-1.61,1.834-2.576-.079-.019-.158-.036-.244-.06A7.109,7.109,0,0,1-1381.216,697.907Z" transform="translate(1393.508 -673.344)" fill="#ffc197"/>
      <path id="Path_65792" data-name="Path 65792" d="M-1383.987,698.737a2.592,2.592,0,0,0,.307.848.506.506,0,0,0,.051.079s0,.005.01.009a10.22,10.22,0,0,0,2.361,1.9c1.462.935,3.062,1.674,3.214,1.047-.162-.124-.418-.293-.682-.467h.034a5.9,5.9,0,0,0,1.876-.311c1.091-.389,1.551-.764,1.624-1.134.339-.054.533-.19.488-.457-.12-.734-1.687-1.17-2.912-1.446-.415-.186-.835-.365-1.2-.535l-.022-.01h.018c.869,0,2.339-.035,2.265-1.06a7.109,7.109,0,0,1-2.607-.5,8.939,8.939,0,0,0-3.451-.254,1.654,1.654,0,0,0-1.007.62A1.921,1.921,0,0,0-1383.987,698.737Z" transform="translate(1394.178 -672.315)" fill="#ffc197"/>
      <path id="Path_65793" data-name="Path 65793" d="M-1390.568,680.58c-.343,1.622-.609,3.26-.907,4.889-.233,1.286-1.191,4.008-.231,5.169,1.225,1.481,2.875-2.189,3.279-2.909a17.082,17.082,0,0,0,2.389-5.541A27.658,27.658,0,0,0-1390.568,680.58Z" transform="translate(1393.605 -673.432)" fill="#ffc9a4"/>
      <path id="Path_65794" data-name="Path 65794" d="M-1392.589,683.318c.712,2.985,4.16,3.528,6.766,2.7a32.667,32.667,0,0,0,2.434-5.858,6.281,6.281,0,0,0,.142-3.813,4.182,4.182,0,0,0-1.987-2.217,3.467,3.467,0,0,0-2.26-.073,4.517,4.517,0,0,0-2.229,1.61,9.4,9.4,0,0,0-1.027,1.975,37.79,37.79,0,0,0-1.487,4.286c-.083.291-.166.583-.239.876A1.553,1.553,0,0,0-1392.589,683.318Z" transform="translate(1393.572 -673.904)" fill="#c44220"/>
    </g>
  </g>
</svg>
